<?xml version="1.0" standalone="no"?>
<!DOCTYPE svg PUBLIC "-//W3C//DTD SVG 1.1//EN" "http://www.w3.org/Graphics/SVG/1.1/DTD/svg11.dtd" >
<svg xmlns="http://www.w3.org/2000/svg">
    <defs>
        <font id="Fakt-Normal">
            <font-face font-family="Fakt Nor"
                       units-per-em="1000"
                       ascent="748"
                       descent="-252"
                       bbox="-172 -240 1100 956"
                    />
            <missing-glyph horiz-adv-x="0" />
            
            <glyph glyph-name="!" unicode="&#x21;" horiz-adv-x="192" d=" M116,192 L88,496 L88,688 L192,688 L192,496 L164,192 M88,0 L88,108 L192,108 L192,0"/> 
            <glyph glyph-name="&quot;" unicode="&#x22;" horiz-adv-x="328" d=" M80,436 L64,604 L64,688 L152,688 L152,604 L136,436 M256,436 L240,604 L240,688 L328,688 L328,604 L312,436"/> 
            <glyph glyph-name="#" unicode="&#x23;" horiz-adv-x="596" d=" M60,456 L60,524 L187,524 L216,688 L296,688 L267,524 L411,524 L440,688 L520,688 L491,524 L596,524 L596,456 L479,456 L441,236 L556,236 L556,168 L429,168 L400,0 L320,0 L349,168 L205,168 L176,0 L96,0 L125,168 L20,168 L20,236 L137,236 L175,456 M255,456 L217,236 L361,236 L399,456"/> 
            <glyph glyph-name="$" unicode="&#x24;" horiz-adv-x="516" d=" M44,192 L132,192 Q136,131 176.5,95.5 Q217,60 280,60 Q346,60 385,93 Q424,126 424,184 Q424,231 394,255.5 Q364,280 300,300 L212,328 Q60,377 60,512 Q60,585 108.5,635 Q157,685 236,696 L236,804 L324,804 L324,696 Q398,684 446.5,636.5 Q495,589 500,516 L412,516 Q404,572 368.5,600 Q333,628 280,628 Q225,628 188.5,600 Q152,572 152,520 Q152,473 178.5,448.5 Q205,424 268,404 L356,376 Q437,350 476.5,304.5 Q516,259 516,188 Q516,106 463.5,54 Q411,2 324,-9 L324,-120 L236,-120 L236,-9 Q150,2 98.5,55 Q47,108 44,192"/> 
            <glyph glyph-name="%" unicode="&#x25;" horiz-adv-x="748" d=" M250,336 Q102,336 65,386 Q28,436 28,516 Q28,596 65,646 Q102,696 176,696 Q250,696 287,646 Q324,596 324,516 Q324,436 250,336 M674,-8 Q526,-8 489,42 Q452,92 452,172 Q452,252 489,302 Q526,352 600,352 Q674,352 711,302 Q748,252 748,172 Q748,92 674,-8 M180,-12 L528,700 L596,700 L248,-12 M104,396 Q248,396 248,516 Q248,636 176,636 Q104,636 104,396 M528,52 Q672,52 672,172 Q672,292 600,292 Q528,292 528,52"/> 
            <glyph glyph-name="&amp;" unicode="&#x26;" horiz-adv-x="692" d=" M48,180 Q48,253 90.5,298.5 Q133,344 207,380 Q161,428 142.5,461 Q124,494 124,536 Q124,603 174.5,651.5 Q225,700 312,700 Q398,700 449,657 Q500,614 500,544 Q500,478 456.5,438.5 Q413,399 333,364 L513,182 Q544,248 544,336 L544,344 L624,344 L624,324 Q624,214 569,124 L692,0 L588,0 L522,66 Q441,-12 304,-12 Q184,-12 116,40 Q48,92 48,180 M304,60 Q407,60 468,119 L258,330 Q199,301 167.5,269 Q136,237 136,188 Q136,128 183,94 Q230,60 304,60 M204,540 Q204,511 221.5,484.5 Q239,458 282,414 Q348,444 382,472 Q416,500 416,544 Q416,582 388.5,607 Q361,632 312,632 Q260,632 232,605.5 Q204,579 204,540"/> 
            <glyph glyph-name="'" unicode="&#x27;" horiz-adv-x="152" d=" M80,436 L64,604 L64,688 L152,688 L152,604 L136,436"/> 
            <glyph glyph-name="(" unicode="&#x28;" horiz-adv-x="268" d=" M24,116 Q24,404 73.5,530.5 Q123,657 188,744 L268,744 Q212,671 160,536.5 Q108,402 108,260 Q108,119 160,-15.5 Q212,-150 268,-228 L188,-228 Q123,-142 24,116"/> 
            <glyph glyph-name=")" unicode="&#x29;" horiz-adv-x="260" d=" M16,-228 Q72,-150 124,-15.5 Q176,119 176,260 Q176,402 124,536.5 Q72,671 16,744 L96,744 Q161,657 210.5,530.5 Q260,404 260,260 Q260,116 210.5,-13 Q161,-142 96,-228"/> 
            <glyph glyph-name="*" unicode="&#x2A;" horiz-adv-x="391" d=" M192,696 L264,696 L247,562 L369,620 L391,551 L260,525 L351,428 L293,386 L227,502 L163,386 L105,428 L195,526 L65,551 L87,620 L208,563"/> 
            <glyph glyph-name="+" unicode="&#x2B;" horiz-adv-x="512" d=" M56,216 L56,292 L244,292 L244,480 L324,480 L324,292 L512,292 L512,216 L324,216 L324,28 L244,28 L244,216"/> 
            <glyph glyph-name="," unicode="&#x2C;" horiz-adv-x="188" d=" M124,0 L76,0 L76,116 L188,116 L188,8 L144,-156 L92,-156"/> 
            <glyph glyph-name="-" unicode="&#x2D;" horiz-adv-x="336" d=" M60,212 L60,292 L336,292 L336,212"/> 
            <glyph glyph-name="." unicode="&#x2E;" horiz-adv-x="188" d=" M76,0 L76,116 L188,116 L188,0"/> 
            <glyph glyph-name="/" unicode="&#x2F;" horiz-adv-x="392" d=" M8,-12 L316,700 L392,700 L84,-12"/> 
            <glyph glyph-name="0" unicode="&#x30;" horiz-adv-x="524" d=" M367,-12 Q201,-12 146,36.5 Q91,85 67.5,162.5 Q44,240 44,344 Q44,448 67.5,525.5 Q91,603 146,651.5 Q201,700 284,700 Q367,700 422,651.5 Q477,603 500.5,525.5 Q524,448 524,344 Q524,240 500.5,162.5 Q477,85 367,-12 M136,68 Q432,68 432,344 Q432,620 284,620 Q136,620 136,68"/> 
            <glyph glyph-name="1" unicode="&#x31;" horiz-adv-x="512" d=" M100,468 L60,536 L280,688 L348,688 L348,76 L512,76 L512,0 L84,0 L84,76 L260,76 L260,579"/> 
            <glyph glyph-name="2" unicode="&#x32;" horiz-adv-x="512" d=" M56,0 Q60,109 99.5,173.5 Q139,238 224,296 L300,348 Q332,370 340.5,376 Q349,382 370,400 Q391,418 397,429.5 Q403,441 409.5,461 Q416,481 416,504 Q416,552 383.5,588 Q351,624 288,624 Q160,624 148,484 L68,484 Q74,598 135.5,649 Q197,700 288,700 Q384,700 444,647.5 Q504,595 504,504 Q504,486 501.5,470 Q499,454 496,441 Q493,428 485,414 Q477,400 473,392 Q469,384 456.5,371.5 Q444,359 439.5,353.5 Q435,348 419,336 Q403,324 399,321.5 Q395,319 377,306.5 Q359,294 356,292 L280,240 Q210,192 185,154 Q160,116 156,76 L512,76 L512,0"/> 
            <glyph glyph-name="3" unicode="&#x33;" horiz-adv-x="516" d=" M48,208 L132,208 Q132,137 172.5,100.5 Q213,64 280,64 Q346,64 387,98 Q428,132 428,191 Q428,248 385.5,283 Q343,318 280,318 L228,318 L228,394 L280,394 Q332,394 368,427.5 Q404,461 404,513 Q404,565 368.5,594.5 Q333,624 280,624 Q226,624 191,592.5 Q156,561 156,500 L76,500 Q76,591 132,645.5 Q188,700 280,700 Q374,700 431,648 Q488,596 488,514 Q488,465 458,420 Q428,375 388,360 L388,356 Q443,341 479.5,293.5 Q516,246 516,184 Q516,94 448.5,41 Q381,-12 280,-12 Q173,-12 110.5,44 Q48,100 48,208"/> 
            <glyph glyph-name="4" unicode="&#x34;" horiz-adv-x="536" d=" M32,172 L32,236 L364,688 L436,688 L436,248 L536,248 L536,172 L436,172 L436,0 L348,0 L348,172 M122,248 L348,248 L348,551"/> 
            <glyph glyph-name="5" unicode="&#x35;" horiz-adv-x="520" d=" M48,184 L136,184 Q143,134 180.5,99 Q218,64 284,64 Q345,64 388.5,103.5 Q432,143 432,212 Q432,282 390.5,323 Q349,364 284,364 Q211,364 152,296 L72,300 L92,688 L480,688 L480,608 L172,608 L160,392 L164,392 Q212,440 296,440 Q391,440 455.5,380.5 Q520,321 520,220 Q520,109 450.5,48.5 Q381,-12 284,-12 Q181,-12 118.5,41 Q56,94 48,184"/> 
            <glyph glyph-name="6" unicode="&#x36;" horiz-adv-x="532" d=" M48,328 Q48,428 70,502.5 Q92,577 129.5,618.5 Q167,660 211.5,680 Q256,700 308,700 Q403,700 455,650.5 Q507,601 516,516 L428,516 Q414,624 308,624 Q240,624 191.5,557.5 Q143,491 140,349 Q161,390 210.5,415 Q260,440 316,440 Q413,440 472.5,378.5 Q532,317 532,216 Q532,111 463.5,49.5 Q395,-12 300,-12 Q188,-12 118,69 Q48,150 48,328 M304,364 Q239,364 195.5,321.5 Q152,279 152,215 Q152,150 193,107 Q234,64 296,64 Q360,64 402,104.5 Q444,145 444,216 Q444,281 403,322.5 Q362,364 304,364"/> 
            <glyph glyph-name="7" unicode="&#x37;" horiz-adv-x="524" d=" M140,0 L428,608 L52,608 L52,688 L524,688 L524,624 L232,0"/> 
            <glyph glyph-name="8" unicode="&#x38;" horiz-adv-x="524" d=" M44,184 Q44,246 80.5,293.5 Q117,341 172,356 L172,360 Q130,375 101,419 Q72,463 72,514 Q72,596 130,648 Q188,700 284,700 Q380,700 438,648 Q496,596 496,514 Q496,463 467,419 Q438,375 396,360 L396,356 Q451,341 487.5,293.5 Q524,246 524,184 Q524,93 458.5,40.5 Q393,-12 284,-12 Q175,-12 109.5,40.5 Q44,93 44,184 M132,191 Q132,131 174,97.5 Q216,64 284,64 Q352,64 394,97.5 Q436,131 436,191 Q436,248 392.5,283 Q349,318 284,318 Q219,318 175.5,283 Q132,248 132,191 M229,394 Q339,394 375.5,427 Q412,460 412,513 Q412,565 375.5,596.5 Q339,628 284,628 Q229,628 192.5,596.5 Q156,565 156,513 Q156,460 229,394"/> 
            <glyph glyph-name="9" unicode="&#x39;" horiz-adv-x="520" d=" M520,360 Q520,164 452,76 Q384,-12 268,-12 Q170,-12 117.5,37 Q65,86 52,172 L140,172 Q163,64 268,64 Q423,64 428,338 Q407,298 357.5,273 Q308,248 252,248 Q155,248 95.5,309.5 Q36,371 36,472 Q36,577 104.5,638.5 Q173,700 268,700 Q380,700 450,619 Q520,538 520,360 M264,324 Q329,324 372.5,366.5 Q416,409 416,473 Q416,537 374.5,580.5 Q333,624 272,624 Q210,624 167,583 Q124,542 124,472 Q124,407 165,365.5 Q206,324 264,324"/> 
            <glyph glyph-name=":" unicode="&#x3A;" horiz-adv-x="188" d=" M76,372 L76,488 L188,488 L188,372 M76,0 L76,116 L188,116 L188,0"/> 
            <glyph glyph-name=";" unicode="&#x3B;" horiz-adv-x="188" d=" M76,372 L76,488 L188,488 L188,372 M124,0 L76,0 L76,116 L188,116 L188,8 L144,-156 L92,-156"/> 
            <glyph glyph-name="&lt;" unicode="&#x3C;" horiz-adv-x="496" d=" M72,216 L72,292 L496,472 L496,392 L161,256 L496,120 L496,36"/> 
            <glyph glyph-name="=" unicode="&#x3D;" horiz-adv-x="512" d=" M56,320 L56,396 L512,396 L512,320 M56,112 L56,188 L512,188 L512,112"/> 
            <glyph glyph-name="&gt;" unicode="&#x3E;" horiz-adv-x="496" d=" M496,292 L496,216 L72,36 L72,116 L407,252 L72,388 L72,472"/> 
            <glyph glyph-name="?" unicode="&#x3F;" horiz-adv-x="468" d=" M204,196 L204,224 Q204,276 221.5,314 Q239,352 264.5,374 Q290,396 315.5,414.5 Q341,433 358.5,458 Q376,483 376,516 Q376,562 344,593 Q312,624 260,624 Q195,624 161.5,583.5 Q128,543 128,480 L40,480 Q40,572 96.5,636 Q153,700 260,700 Q352,700 410,651 Q468,602 468,520 Q468,482 455,451 Q442,420 422.5,402 Q403,384 380,365 Q357,346 337.5,330 Q318,314 305,290 Q292,266 292,236 L292,196 M196,0 L196,108 L300,108 L300,0"/> 
            <glyph glyph-name="@" unicode="&#x40;" horiz-adv-x="984" d=" M300,128 Q300,249 460,276 L556,292 Q595,298 607.5,304.5 Q620,311 620,328 Q620,428 516,428 Q410,428 404,336 L320,336 Q323,408 374,454 Q425,500 512,500 Q609,500 658.5,452 Q708,404 708,316 L708,165 Q708,52 788,52 Q836,52 872,108 Q908,164 908,272 Q908,438 799,537 Q690,636 520,636 Q342,636 233,520.5 Q124,405 124,232 Q124,61 230.5,-51.5 Q337,-164 508,-164 Q645,-164 720,-88 L820,-88 Q711,-228 508,-228 Q305,-228 176.5,-96.5 Q48,35 48,232 Q48,431 179,565.5 Q310,700 520,700 Q722,700 853,582 Q984,464 984,272 Q984,132 925,62 Q866,-8 780,-8 Q671,-8 640,74 Q592,-12 464,-12 Q387,-12 343.5,26.5 Q300,65 300,128 M620,204 L620,251 Q606,234 568,228 L472,212 Q388,198 388,132 Q388,97 412.5,76.5 Q437,56 480,56 Q541,56 580.5,94 Q620,132 620,204"/> 
            <glyph glyph-name="A" unicode="&#x41;" horiz-adv-x="632" d=" M12,0 L268,688 L376,688 L632,0 L536,0 L471,180 L169,180 L104,0 M322,592 L318,592 L198,260 L442,260"/> 
            <glyph glyph-name="B" unicode="&#x42;" horiz-adv-x="616" d=" M84,0 L84,688 L368,688 Q478,688 533,641 Q588,594 588,508 Q588,458 560.5,419.5 Q533,381 480,364 L480,360 Q542,349 579,306.5 Q616,264 616,204 Q616,113 556.5,56.5 Q497,0 388,0 M388,316 L176,316 L176,80 L388,80 Q455,80 489.5,113.5 Q524,147 524,203 Q524,253 489,284.5 Q454,316 388,316 M368,608 L176,608 L176,396 L368,396 Q429,396 462.5,427.5 Q496,459 496,509 Q496,608 368,608"/> 
            <glyph glyph-name="C" unicode="&#x43;" horiz-adv-x="668" d=" M44,344 Q44,499 136.5,599.5 Q229,700 376,700 Q494,700 570,638 Q646,576 668,472 L573,472 Q533,616 376,616 Q271,616 205.5,540 Q140,464 140,344 Q140,226 205,149 Q270,72 372,72 Q533,72 573,216 L668,216 Q647,112 568.5,50 Q490,-12 372,-12 Q227,-12 135.5,87.5 Q44,187 44,344"/> 
            <glyph glyph-name="D" unicode="&#x44;" horiz-adv-x="660" d=" M88,0 L88,688 L300,688 Q473,688 566.5,593.5 Q660,499 660,344 Q660,189 566.5,94.5 Q473,0 300,0 M300,608 L180,608 L180,80 L300,80 Q436,80 500,154.5 Q564,229 564,344 Q564,459 500,533.5 Q436,608 300,608"/> 
            <glyph glyph-name="E" unicode="&#x45;" horiz-adv-x="560" d=" M88,0 L88,688 L552,688 L552,608 L180,608 L180,390 L476,390 L476,310 L180,310 L180,80 L560,80 L560,0"/> 
            <glyph glyph-name="F" unicode="&#x46;" horiz-adv-x="544" d=" M88,0 L88,688 L544,688 L544,608 L180,608 L180,360 L468,360 L468,280 L180,280 L180,0"/> 
            <glyph glyph-name="G" unicode="&#x47;" horiz-adv-x="684" d=" M624,0 L608,100 L605,100 Q534,-12 380,-12 Q233,-12 138.5,89 Q44,190 44,344 Q44,499 139,599.5 Q234,700 384,700 Q503,700 582,639.5 Q661,579 684,484 L588,484 Q570,542 518.5,579 Q467,616 384,616 Q274,616 207,539.5 Q140,463 140,344 Q140,226 207.5,149 Q275,72 380,72 Q471,72 535.5,123.5 Q600,175 600,264 L600,284 L384,284 L384,364 L684,364 L684,0"/> 
            <glyph glyph-name="H" unicode="&#x48;" horiz-adv-x="640" d=" M88,0 L88,688 L180,688 L180,388 L548,388 L548,688 L640,688 L640,0 L548,0 L548,308 L180,308 L180,0"/> 
            <glyph glyph-name="I" unicode="&#x49;" horiz-adv-x="180" d=" M88,0 L88,688 L180,688 L180,0"/> 
            <glyph glyph-name="J" unicode="&#x4A;" horiz-adv-x="436" d=" M36,196 L36,228 L128,228 L128,204 Q128,134 157,101 Q186,68 236,68 Q286,68 315,101 Q344,134 344,204 L344,688 L436,688 L436,196 Q436,89 382.5,38.5 Q329,-12 236,-12 Q143,-12 89.5,38.5 Q36,89 36,196"/> 
            <glyph glyph-name="K" unicode="&#x4B;" horiz-adv-x="644" d=" M88,0 L88,688 L180,688 L180,318 L524,688 L632,688 L349,389 L644,0 L540,0 L288,325 L180,210 L180,0"/> 
            <glyph glyph-name="L" unicode="&#x4C;" horiz-adv-x="516" d=" M88,0 L88,688 L180,688 L180,80 L516,80 L516,0"/> 
            <glyph glyph-name="M" unicode="&#x4D;" horiz-adv-x="816" d=" M88,0 L88,688 L200,688 L453,124 L455,124 L704,688 L816,688 L816,0 L724,0 L732,544 L728,544 L488,0 L416,0 L176,532 L172,532 L180,0"/> 
            <glyph glyph-name="N" unicode="&#x4E;" horiz-adv-x="648" d=" M88,0 L88,688 L176,688 L556,156 L560,156 L556,688 L648,688 L648,0 L560,0 L180,528 L176,528 L180,0"/> 
            <glyph glyph-name="O" unicode="&#x4F;" horiz-adv-x="716" d=" M44,189 Q44,499 137.5,599.5 Q231,700 380,700 Q527,700 621.5,599 Q716,498 716,344 Q716,190 621.5,89 Q527,-12 380,-12 Q231,-12 44,189 M140,462 Q140,226 206.5,149 Q273,72 380,72 Q487,72 553.5,149 Q620,226 620,344 Q620,462 553.5,539 Q487,616 380,616 Q273,616 140,462"/> 
            <glyph glyph-name="P" unicode="&#x50;" horiz-adv-x="592" d=" M88,0 L88,688 L348,688 Q463,688 527.5,627.5 Q592,567 592,468 Q592,368 527,304 Q462,240 348,240 L180,240 L180,0 M352,608 L180,608 L180,320 L352,320 Q424,320 462,362 Q500,404 500,468 Q500,531 462,569.5 Q424,608 352,608"/> 
            <glyph glyph-name="Q" unicode="&#x51;" horiz-adv-x="740" d=" M44,189 Q44,499 137.5,599.5 Q231,700 380,700 Q527,700 621.5,599 Q716,498 716,344 Q716,178 609,76 L740,-60 L676,-124 L536,24 Q464,-12 380,-12 Q231,-12 44,189 M140,462 Q140,226 206.5,149 Q273,72 380,72 Q487,72 553.5,149 Q620,226 620,344 Q620,462 553.5,539 Q487,616 380,616 Q273,616 140,462"/> 
            <glyph glyph-name="R" unicode="&#x52;" horiz-adv-x="612" d=" M88,0 L88,688 L348,688 Q465,688 526.5,635 Q588,582 588,484 Q588,406 549,352.5 Q510,299 437,279 L612,0 L512,0 L341,268 L180,268 L180,0 M352,608 L180,608 L180,348 L352,348 Q421,348 458.5,386 Q496,424 496,484 Q496,542 458,575 Q420,608 352,608"/> 
            <glyph glyph-name="S" unicode="&#x53;" horiz-adv-x="592" d=" M56,196 L148,196 Q148,138 194.5,101 Q241,64 320,64 Q404,64 450,97.5 Q496,131 496,192 Q496,229 472.5,252.5 Q449,276 411,287 Q373,298 327,306 Q281,314 235,325.5 Q189,337 151,355 Q113,373 89.5,409.5 Q66,446 66,500 Q66,588 136,644 Q206,700 320,700 Q433,700 502.5,647.5 Q572,595 572,504 L480,504 Q480,560 435.5,592 Q391,624 320,624 Q250,624 205,594 Q160,564 160,508 Q160,472 184,449 Q208,426 246,415 Q284,404 330,396 Q376,388 422,376.5 Q468,365 506,346.5 Q544,328 568,290 Q592,252 592,196 Q592,102 519.5,45 Q447,-12 320,-12 Q196,-12 126,44.5 Q56,101 56,196"/> 
            <glyph glyph-name="T" unicode="&#x54;" horiz-adv-x="580" d=" M8,610 L8,688 L580,688 L580,610 L340,610 L340,0 L248,0 L248,610"/> 
            <glyph glyph-name="U" unicode="&#x55;" horiz-adv-x="624" d=" M72,272 L72,688 L164,688 L164,272 Q164,176 210,124 Q256,72 348,72 Q440,72 486,124 Q532,176 532,272 L532,688 L624,688 L624,272 Q624,125 550.5,56.5 Q477,-12 348,-12 Q219,-12 145.5,56.5 Q72,125 72,272"/> 
            <glyph glyph-name="V" unicode="&#x56;" horiz-adv-x="612" d=" M258,0 L8,688 L104,688 L310,96 L314,96 L520,688 L612,688 L360,0"/> 
            <glyph glyph-name="W" unicode="&#x57;" horiz-adv-x="924" d=" M196,0 L12,688 L108,688 L254,96 L258,96 L416,688 L528,688 L686,96 L690,96 L832,688 L924,688 L744,0 L628,0 L472,584 L468,584 L312,0"/> 
            <glyph glyph-name="X" unicode="&#x58;" horiz-adv-x="588" d=" M8,0 L245,351 L16,688 L120,688 L297,424 L472,688 L572,688 L347,354 L588,0 L484,0 L295,281 L108,0"/> 
            <glyph glyph-name="Y" unicode="&#x59;" horiz-adv-x="596" d=" M256,0 L256,270 L12,688 L116,688 L302,364 L306,364 L500,688 L596,688 L348,277 L348,0"/> 
            <glyph glyph-name="Z" unicode="&#x5A;" horiz-adv-x="548" d=" M56,610 L56,688 L548,688 L548,628 L151,78 L544,78 L544,0 L36,0 L36,60 L433,610"/> 
            <glyph glyph-name="[" unicode="&#x5B;" horiz-adv-x="316" d=" M168,-156 L316,-156 L316,-228 L88,-228 L88,744 L316,744 L316,672 L168,672"/> 
            <glyph glyph-name="\" unicode="&#x5C;" horiz-adv-x="392" d=" M316,-12 L8,700 L84,700 L392,-12"/> 
            <glyph glyph-name="]" unicode="&#x5D;" horiz-adv-x="244" d=" M16,-156 L164,-156 L164,672 L16,672 L16,744 L244,744 L244,-228 L16,-228"/> 
            <glyph glyph-name="^" unicode="&#x5E;" horiz-adv-x="518" d=" M54,352 L242,688 L330,688 L518,352 L426,352 L284,617 L142,352"/> 
            <glyph glyph-name="_" unicode="&#x5F;" horiz-adv-x="500" d=" M0,-72 L500,-72 L500,-140 L0,-140"/> 
            <glyph glyph-name="`" unicode="&#x60;" horiz-adv-x="312" d=" M248,568 L104,732 L208,732 L312,568"/> 
            <glyph glyph-name="a" unicode="&#x61;" horiz-adv-x="456" d=" M48,62 Q48,186 86,222.5 Q124,259 208,274 L304,290 Q344,297 356,304 Q368,311 368,328 Q368,374 341,401 Q314,428 264,428 Q212,428 183.5,403 Q155,378 152,336 L68,336 Q71,408 123,454 Q175,500 264,500 Q358,500 407,453 Q456,406 456,320 L456,0 L372,0 L372,65 L368,65 Q326,-12 212,-12 Q135,-12 48,62 M368,204 L368,251 Q354,234 316,228 L224,212 Q136,197 136,132 Q136,99 159.5,79.5 Q183,60 228,60 Q288,60 328,97.5 Q368,135 368,204"/> 
            <glyph glyph-name="b" unicode="&#x62;" horiz-adv-x="544" d=" M76,0 L76,732 L164,732 L164,576 Q164,476 160,412 L164,412 Q208,500 328,500 Q423,500 483.5,432.5 Q544,365 544,248 Q544,131 480,59.5 Q416,-12 320,-12 Q208,-12 164,76 L160,76 L160,0 M164,244 Q164,160 205,112 Q246,64 308,64 Q370,64 411,113.5 Q452,163 452,248 Q452,332 411.5,378 Q371,424 308,424 Q247,424 206.5,378.5 Q166,333 164,252"/> 
            <glyph glyph-name="c" unicode="&#x63;" horiz-adv-x="484" d=" M40,244 Q40,359 105.5,429.5 Q171,500 272,500 Q363,500 418.5,451.5 Q474,403 484,324 L396,324 Q388,369 357,396.5 Q326,424 272,424 Q211,424 171.5,374 Q132,324 132,244 Q132,164 171.5,114 Q211,64 272,64 Q326,64 357,91.5 Q388,119 396,164 L484,164 Q474,85 418.5,36.5 Q363,-12 272,-12 Q164,-12 102,57 Q40,126 40,244"/> 
            <glyph glyph-name="d" unicode="&#x64;" horiz-adv-x="508" d=" M40,123 Q40,357 104,428.5 Q168,500 264,500 Q376,500 420,412 L424,412 Q420,476 420,576 L420,732 L508,732 L508,0 L424,0 L424,76 L420,76 Q376,-12 256,-12 Q161,-12 40,123 M132,240 Q132,156 172.5,110 Q213,64 276,64 Q338,64 379,112 Q420,160 420,244 Q420,328 379,376 Q338,424 276,424 Q214,424 173,374.5 Q132,325 132,240"/> 
            <glyph glyph-name="e" unicode="&#x65;" horiz-adv-x="488" d=" M40,244 Q40,357 106,428.5 Q172,500 272,500 Q369,500 428.5,438 Q488,376 488,268 L488,232 L132,232 Q135,155 174,109.5 Q213,64 276,64 Q327,64 357.5,88 Q388,112 396,148 L484,148 Q474,81 416.5,34.5 Q359,-12 276,-12 Q163,-12 101.5,56.5 Q40,125 40,244 M272,424 Q222,424 185.5,390.5 Q149,357 137,298 L398,298 Q387,424 272,424"/> 
            <glyph glyph-name="f" unicode="&#x66;" horiz-adv-x="320" d=" M96,0 L96,416 L4,416 L4,488 L96,488 L96,568 Q96,732 260,732 L320,732 L320,656 L268,656 Q222,656 203,633.5 Q184,611 184,564 L184,488 L304,488 L304,416 L184,416 L184,0"/> 
            <glyph glyph-name="g" unicode="&#x67;" horiz-adv-x="508" d=" M52,-60 L136,-60 Q136,-104 173,-130 Q210,-156 268,-156 Q424,-156 424,24 L424,76 L420,76 Q376,-12 256,-12 Q161,-12 100.5,55.5 Q40,123 40,240 Q40,357 104,428.5 Q168,500 264,500 Q376,500 420,412 L424,412 L424,488 L508,488 L508,24 Q508,-106 441.5,-167 Q375,-228 268,-228 Q173,-228 112.5,-184 Q52,-140 52,-60 M132,240 Q132,156 172.5,110 Q213,64 276,64 Q338,64 379,112 Q420,160 420,244 Q420,328 379,376 Q338,424 276,424 Q214,424 173,374.5 Q132,325 132,240"/> 
            <glyph glyph-name="h" unicode="&#x68;" horiz-adv-x="496" d=" M76,0 L76,732 L164,732 L164,580 Q164,480 160,416 L164,416 Q206,500 316,500 Q396,500 446,451.5 Q496,403 496,296 L496,0 L408,0 L408,284 Q408,424 296,424 Q239,424 201.5,377.5 Q164,331 164,255 L164,0"/> 
            <glyph glyph-name="i" unicode="&#x69;" horiz-adv-x="168" d=" M72,632 L72,732 L168,732 L168,632 M76,0 L76,488 L164,488 L164,0"/> 
            <glyph glyph-name="j" unicode="&#x6A;" horiz-adv-x="168" d=" M72,632 L72,732 L168,732 L168,632 M76,-72 L76,488 L164,488 L164,-88 Q164,-220 28,-220 L-4,-220 L-4,-144 L20,-144 Q51,-144 63.5,-126.5 Q76,-109 76,-72"/> 
            <glyph glyph-name="k" unicode="&#x6B;" horiz-adv-x="500" d=" M76,0 L76,732 L164,732 L164,253 L376,488 L480,488 L299,293 L500,0 L396,0 L239,229 L164,147 L164,0"/> 
            <glyph glyph-name="l" unicode="&#x6C;" horiz-adv-x="164" d=" M76,0 L76,732 L164,732 L164,0"/> 
            <glyph glyph-name="m" unicode="&#x6D;" horiz-adv-x="796" d=" M76,0 L76,488 L160,488 L160,416 L164,416 Q206,500 312,500 Q426,500 464,401 Q511,500 628,500 Q703,500 749.5,453 Q796,406 796,304 L796,0 L708,0 L708,292 Q708,363 684,393.5 Q660,424 608,424 Q554,424 517,377.5 Q480,331 480,254 L480,0 L392,0 L392,292 Q392,362 367,393 Q342,424 292,424 Q238,424 201,377 Q164,330 164,253 L164,0"/> 
            <glyph glyph-name="n" unicode="&#x6E;" horiz-adv-x="496" d=" M76,0 L76,488 L160,488 L160,416 L164,416 Q206,500 316,500 Q396,500 446,451.5 Q496,403 496,296 L496,0 L408,0 L408,284 Q408,424 296,424 Q239,424 201.5,377.5 Q164,331 164,253 L164,0"/> 
            <glyph glyph-name="o" unicode="&#x6F;" horiz-adv-x="520" d=" M40,244 Q40,360 107,430 Q174,500 280,500 Q391,500 455.5,430.5 Q520,361 520,244 Q520,128 453,58 Q386,-12 280,-12 Q169,-12 104.5,57.5 Q40,127 40,244 M132,325 Q132,163 173,113.5 Q214,64 280,64 Q346,64 387,113.5 Q428,163 428,244 Q428,327 387.5,375.5 Q347,424 280,424 Q214,424 132,325"/> 
            <glyph glyph-name="p" unicode="&#x70;" horiz-adv-x="544" d=" M164,-88 L164,-220 L76,-220 L76,488 L160,488 L160,412 L164,412 Q208,500 328,500 Q423,500 483.5,432.5 Q544,365 544,248 Q544,131 480,59.5 Q416,-12 320,-12 Q208,-12 164,76 L160,76 Q164,12 164,-88 M452,248 Q452,332 411.5,378 Q371,424 308,424 Q247,424 206.5,378.5 Q166,333 164,252 L164,244 Q164,160 205,112 Q246,64 308,64 Q370,64 411,113.5 Q452,163 452,248"/> 
            <glyph glyph-name="q" unicode="&#x71;" horiz-adv-x="508" d=" M420,-88 Q420,12 424,76 L420,76 Q376,-12 256,-12 Q161,-12 100.5,55.5 Q40,123 40,240 Q40,357 104,428.5 Q168,500 264,500 Q376,500 420,412 L424,412 L424,488 L508,488 L508,-220 L420,-220 M132,240 Q132,156 172.5,110 Q213,64 276,64 Q337,64 377.5,109.5 Q418,155 420,235 L420,252 Q418,333 377.5,378.5 Q337,424 276,424 Q214,424 173,374.5 Q132,325 132,240"/> 
            <glyph glyph-name="r" unicode="&#x72;" horiz-adv-x="360" d=" M76,0 L76,488 L160,488 L160,417 L163,417 Q201,500 292,500 Q331,500 360,480 L332,400 Q300,416 272,416 Q220,416 192,369.5 Q164,323 164,255 L164,0"/> 
            <glyph glyph-name="s" unicode="&#x73;" horiz-adv-x="448" d=" M40,140 L124,140 Q124,99 158.5,77.5 Q193,56 240,56 Q360,56 360,136 Q360,164 341.5,178.5 Q323,193 284,200 L192,216 Q50,240 50,348 Q50,418 105,459 Q160,500 244,500 Q328,500 382,463 Q436,426 436,352 L352,352 Q352,390 322.5,411 Q293,432 244,432 Q197,432 166.5,412 Q136,392 136,356 Q136,305 220,291 L312,275 Q376,264 412,234.5 Q448,205 448,144 Q448,69 391.5,28.5 Q335,-12 240,-12 Q150,-12 95,27.5 Q40,67 40,140"/> 
            <glyph glyph-name="t" unicode="&#x74;" horiz-adv-x="304" d=" M88,144 L88,416 L-4,416 L-4,488 L88,488 L88,636 L176,636 L176,488 L304,488 L304,416 L176,416 L176,148 Q176,109 192,92.5 Q208,76 244,76 L304,76 L304,0 L232,0 Q88,0 88,144"/> 
            <glyph glyph-name="u" unicode="&#x75;" horiz-adv-x="484" d=" M68,192 L68,488 L156,488 L156,204 Q156,64 268,64 Q325,64 360.5,111 Q396,158 396,236 L396,488 L484,488 L484,0 L400,0 L400,72 L396,72 Q354,-12 248,-12 Q168,-12 118,36.5 Q68,85 68,192"/> 
            <glyph glyph-name="v" unicode="&#x76;" horiz-adv-x="464" d=" M188,0 L4,488 L100,488 L236,96 L240,96 L376,488 L464,488 L284,0"/> 
            <glyph glyph-name="w" unicode="&#x77;" horiz-adv-x="720" d=" M144,0 L4,488 L96,488 L196,92 L200,92 L312,488 L416,488 L528,92 L532,92 L632,488 L720,488 L580,0 L472,0 L364,400 L360,400 L252,0"/> 
            <glyph glyph-name="x" unicode="&#x78;" horiz-adv-x="452" d=" M12,0 L184,246 L16,488 L120,488 L237,313 L352,488 L448,488 L279,247 L452,0 L348,0 L227,181 L108,0"/> 
            <glyph glyph-name="y" unicode="&#x79;" horiz-adv-x="464" d=" M33,-152 L65,-152 Q149,-152 185,-52 L196,-21 L4,488 L100,488 L236,96 L240,96 L376,488 L464,488 L257,-76 Q202,-228 81,-228 L33,-228"/> 
            <glyph glyph-name="z" unicode="&#x7A;" horiz-adv-x="412" d=" M32,416 L32,488 L408,488 L408,428 L149,72 L412,72 L412,0 L36,0 L36,52 L300,416"/> 
            <glyph glyph-name="{" unicode="&#x7B;" horiz-adv-x="340" d=" M132,-76 L132,100 Q132,176 109.5,204 Q87,232 20,232 L20,292 Q87,292 109.5,320 Q132,348 132,424 L132,592 Q132,668 167,706 Q202,744 288,744 L340,744 L340,676 L292,676 Q247,676 229.5,657.5 Q212,639 212,596 L212,400 Q212,344 189,311.5 Q166,279 112,264 L112,260 Q166,245 189,212.5 Q212,180 212,124 L212,-80 Q212,-123 229.5,-141.5 Q247,-160 292,-160 L340,-160 L340,-228 L288,-228 Q202,-228 167,-190 Q132,-152 132,-76"/> 
            <glyph glyph-name="|" unicode="&#x7C;" horiz-adv-x="168" d=" M88,-240 L88,760 L168,760 L168,-240"/> 
            <glyph glyph-name="}" unicode="&#x7D;" horiz-adv-x="336" d=" M16,-160 L64,-160 Q109,-160 126.5,-141.5 Q144,-123 144,-80 L144,124 Q144,180 167,212.5 Q190,245 244,260 L244,264 Q190,279 167,311.5 Q144,344 144,400 L144,596 Q144,639 126.5,657.5 Q109,676 64,676 L16,676 L16,744 L68,744 Q154,744 189,706 Q224,668 224,592 L224,424 Q224,348 246.5,320 Q269,292 336,292 L336,232 Q269,232 246.5,204 Q224,176 224,100 L224,-76 Q224,-152 189,-190 Q154,-228 68,-228 L16,-228"/> 
            <glyph glyph-name="~" unicode="&#x7E;" horiz-adv-x="512" d=" M56,184 Q56,258 92.5,297 Q129,336 184,336 Q223,336 260,317 Q297,298 328.5,279 Q360,260 384,260 Q436,260 436,336 L512,336 Q512,262 476.5,223 Q441,184 388,184 Q349,184 310.5,204 Q272,224 240,244 Q208,264 184,264 Q132,264 132,184"/> 
            <glyph glyph-name="¡" unicode="&#xA1;" horiz-adv-x="192" d=" M88,380 L88,488 L192,488 L192,380 M88,-8 L116,296 L164,296 L192,-8 L192,-200 L88,-200"/> 
            <glyph glyph-name="¢" unicode="&#xA2;" horiz-adv-x="516" d=" M252,-12 L252,95 Q160,109 108,176 Q56,243 56,348 Q56,450 112.5,518.5 Q169,587 256,601 L256,700 L344,700 L344,600 Q418,588 462.5,542 Q507,496 516,428 L428,428 Q420,473 386.5,500.5 Q353,528 296,528 Q232,528 190,478 Q148,428 148,348 Q148,268 190,218 Q232,168 296,168 Q353,168 386.5,195.5 Q420,223 428,268 L516,268 Q507,199 461,152.5 Q415,106 340,95 L340,-12"/> 
            <glyph glyph-name="£" unicode="&#xA3;" horiz-adv-x="548" d=" M60,326 L60,388 L147,388 Q120,473 120,524 Q120,604 170.5,652 Q221,700 304,700 Q385,700 431.5,654.5 Q478,609 484,524 L396,524 Q391,578 367.5,603 Q344,628 300,628 Q261,628 234.5,602 Q208,576 208,532 Q208,481 241,388 L400,388 L400,326 L262,326 Q276,274 276,236 Q276,182 262,131 Q266,128 278,120 Q290,112 294.5,109 Q299,106 309.5,99 Q320,92 325.5,89 Q331,86 340.5,81 Q350,76 357,74 Q364,72 372.5,69 Q381,66 388.5,65 Q396,64 404,64 Q468,64 472,164 L548,164 Q535,-12 400,-12 Q372,-12 340,1.5 Q308,15 289,28 Q270,41 236,67 Q191,-12 108,-12 Q60,-12 32,14 Q4,40 4,80 Q4,131 36.5,159.5 Q69,188 120,188 Q151,188 190,172 Q192,194 192,204 Q192,252 168,326 M110,40 Q156,40 178,108 Q140,132 112,132 Q92,132 78,119 Q64,106 64,86 Q64,65 76,52.5 Q88,40 110,40"/> 
            <glyph glyph-name="¤" unicode="&#xA4;" horiz-adv-x="480" d=" M132,148 L88,192 L146,251 Q116,297 116,344 Q116,393 148,439 L88,500 L132,544 L192,482 Q232,508 284,508 Q335,508 375,482 L436,544 L480,500 L420,439 Q452,393 452,344 Q452,298 421,251 L480,192 L436,148 L378,207 Q339,180 284,180 Q229,180 190,207 M243,244 Q325,244 352.5,271.5 Q380,299 380,344 Q380,389 352.5,416.5 Q325,444 284,444 Q243,444 215.5,416.5 Q188,389 188,344 Q188,299 243,244"/> 
            <glyph glyph-name="¥" unicode="&#xA5;" horiz-adv-x="552" d=" M88,248 L88,304 L240,304 L240,310 L16,688 L116,688 L286,392 L290,392 L460,688 L552,688 L328,307 L328,304 L480,304 L480,248 L328,248 L328,172 L480,172 L480,116 L328,116 L328,0 L240,0 L240,116 L88,116 L88,172 L240,172 L240,248"/> 
            <glyph glyph-name="¦" unicode="&#xA6;" horiz-adv-x="168" d=" M88,336 L88,688 L168,688 L168,336 M88,-164 L88,188 L168,188 L168,-164"/> 
            <glyph glyph-name="§" unicode="&#xA7;" horiz-adv-x="512" d=" M68,-68 L152,-68 Q161,-160 280,-160 Q340,-160 372,-134.5 Q404,-109 404,-64 Q404,-27 381,-7.5 Q358,12 308,28 L216,56 Q134,81 97,123 Q60,165 60,232 Q60,285 91,326 Q122,367 177,387 Q80,430 80,528 Q80,608 138.5,654 Q197,700 292,700 Q386,700 442,660.5 Q498,621 504,540 L420,540 Q411,632 292,632 Q232,632 200,606.5 Q168,581 168,536 Q168,499 191,479.5 Q214,460 264,444 L356,416 Q438,391 475,349 Q512,307 512,240 Q512,187 481,146.5 Q450,106 395,85 Q492,41 492,-56 Q492,-136 433.5,-182 Q375,-228 280,-228 Q186,-228 130,-188.5 Q74,-149 68,-68 M320,340 L255,359 Q201,346 172.5,314.5 Q144,283 144,244 Q144,196 169.5,172.5 Q195,149 252,132 L309,114 Q367,126 397.5,157 Q428,188 428,228 Q428,275 403,298.5 Q378,322 320,340"/> 
            <glyph glyph-name="¨" unicode="&#xA8;" horiz-adv-x="424" d=" M336,604 L336,696 L424,696 L424,604 M136,604 L136,696 L224,696 L224,604"/> 
            <glyph glyph-name="©" unicode="&#xA9;" horiz-adv-x="740" d=" M36,348 Q36,499 136,599.5 Q236,700 388,700 Q538,700 639,599 Q740,498 740,348 Q740,196 639.5,92 Q539,-12 388,-12 Q237,-12 136.5,92 Q36,196 36,348 M108,348 Q108,223 187,135.5 Q266,48 388,48 Q507,48 587.5,136 Q668,224 668,348 Q668,472 589.5,554 Q511,636 388,636 Q265,636 186.5,554 Q108,472 108,348 M216,273 Q216,423 263,473.5 Q310,524 388,524 Q449,524 488.5,492.5 Q528,461 538,408 L468,408 Q452,464 388,464 Q343,464 315.5,430.5 Q288,397 288,348 Q288,299 315.5,265.5 Q343,232 388,232 Q452,232 468,288 L538,288 Q528,235 488.5,203.5 Q449,172 388,172 Q310,172 216,273"/> 
            <glyph glyph-name="ª" unicode="&#xAA;" horiz-adv-x="340" d=" M151,336 Q97,336 66.5,363 Q36,390 36,434 Q36,523 151,539 L216,547 Q242,550 251,555.5 Q260,561 260,576 Q260,603 243.5,620.5 Q227,638 195,638 Q131,638 127,578 L52,578 Q56,638 95.5,667.5 Q135,697 195,697 Q264,697 302,665.5 Q340,634 340,573 L340,344 L263,344 L263,386 L260,386 Q229,336 151,336 M173,392 Q210,392 235,414.5 Q260,437 260,482 L260,513 Q251,500 226,497 L170,490 Q116,483 116,440 Q116,417 131,404.5 Q146,392 173,392"/> 
            <glyph glyph-name="«" unicode="&#xAB;" horiz-adv-x="460" d=" M244,252 L388,456 L460,456 L344,252 L460,48 L388,48 M196,48 L52,252 L196,456 L268,456 L152,252 L268,48"/> 
            <glyph glyph-name="¬" unicode="&#xAC;" horiz-adv-x="512" d=" M56,216 L56,292 L512,292 L512,28 L432,28 L432,216"/> 
            <glyph glyph-name="®" unicode="&#xAE;" horiz-adv-x="740" d=" M36,348 Q36,499 136,599.5 Q236,700 388,700 Q538,700 639,599 Q740,498 740,348 Q740,196 639.5,92 Q539,-12 388,-12 Q237,-12 136.5,92 Q36,196 36,348 M108,348 Q108,223 187,135.5 Q266,48 388,48 Q507,48 587.5,136 Q668,224 668,348 Q668,472 589.5,554 Q511,636 388,636 Q265,636 186.5,554 Q108,472 108,348 M248,176 L248,520 L406,520 Q469,520 502.5,491.5 Q536,463 536,412 Q536,377 515,349.5 Q494,322 460,309 L548,176 L470,176 L393,300 L320,300 L320,176 M404,460 L320,460 L320,360 L404,360 Q464,360 464,412 Q464,460 404,460"/> 
            <glyph glyph-name="¯" unicode="&#xAF;" horiz-adv-x="416" d=" M140,616 L140,684 L416,684 L416,616"/> 
            <glyph glyph-name="°" unicode="&#xB0;" horiz-adv-x="320" d=" M240,428 Q120,428 80,466 Q40,504 40,564 Q40,624 80,662 Q120,700 180,700 Q240,700 280,662 Q320,624 320,564 Q320,504 240,428 M210,636 Q150,636 131,616 Q112,596 112,564 Q112,532 131,512 Q150,492 180,492 Q210,492 229,512 Q248,532 248,564 Q248,596 210,636"/> 
            <glyph glyph-name="±" unicode="&#xB1;" horiz-adv-x="512" d=" M56,316 L56,392 L244,392 L244,566 L324,566 L324,392 L512,392 L512,316 L324,316 L324,142 L244,142 L244,316 M56,0 L56,76 L512,76 L512,0"/> 
            <glyph glyph-name="´" unicode="&#xB4;" horiz-adv-x="456" d=" M248,568 L352,732 L456,732 L312,568"/> 
            <glyph glyph-name="µ" unicode="&#xB5;" horiz-adv-x="492" d=" M152,16 Q164,-80 164,-144 L164,-220 L76,-220 L76,488 L164,488 L164,204 Q164,129 192,96.5 Q220,64 276,64 Q333,64 368.5,111 Q404,158 404,236 L404,488 L492,488 L492,0 L408,0 L408,72 L404,72 Q362,-12 256,-12 Q199,-12 158,16"/> 
            <glyph glyph-name="¶" unicode="&#xB6;" horiz-adv-x="524" d=" M436,0 L436,688 L524,688 L524,0 M264,0 L264,249 Q160,256 100,315 Q40,374 40,468 Q40,568 107.5,628 Q175,688 292,688 L352,688 L352,0"/> 
            <glyph glyph-name="·" unicode="&#xB7;" horiz-adv-x="188" d=" M76,196 L76,308 L188,308 L188,196"/> 
            <glyph glyph-name="¸" unicode="&#xB8;" horiz-adv-x="388" d=" M236,-84 L264,0 L296,0 L296,-36 Q340,-39 364,-63.5 Q388,-88 388,-124 Q388,-167 358,-193.5 Q328,-220 272,-220 L216,-220 L216,-164 L268,-164 Q320,-164 320,-124 Q320,-84 268,-84"/> 
            <glyph glyph-name="º" unicode="&#xBA;" horiz-adv-x="383" d=" M206,336 Q125,336 77.5,384.5 Q30,433 30,516 Q30,598 78.5,647.5 Q127,697 206,697 Q287,697 335,648 Q383,599 383,516 Q383,434 334,385 Q285,336 206,336 M206,400 Q249,400 274.5,432 Q300,464 300,516 Q300,569 274.5,600.5 Q249,632 206,632 Q164,632 138.5,600 Q113,568 113,516 Q113,464 138.5,432 Q164,400 206,400"/> 
            <glyph glyph-name="»" unicode="&#xBB;" horiz-adv-x="460" d=" M244,48 L360,252 L244,456 L316,456 L460,252 L316,48 M52,48 L168,252 L52,456 L124,456 L268,252 L124,48"/> 
            <glyph glyph-name="¼" unicode="&#xBC;" horiz-adv-x="748" d=" M448,64 L448,112 L636,344 L700,344 L700,124 L748,124 L748,64 L700,64 L700,0 L624,0 L624,64 M216,-12 L564,700 L632,700 L284,-12 M72,550 L40,604 L180,688 L228,688 L228,408 L320,408 L320,344 L52,344 L52,408 L152,408 L152,596 M531,124 L624,124 L624,241"/> 
            <glyph glyph-name="½" unicode="&#xBD;" horiz-adv-x="736" d=" M456,0 Q456,70 486,106.5 Q516,143 568,169 L592,181 Q660,215 660,244 Q660,292 600,292 Q537,292 532,228 L460,228 Q462,291 501.5,321.5 Q541,352 600,352 Q662,352 699,324.5 Q736,297 736,246 Q736,223 727,204.5 Q718,186 698.5,171.5 Q679,157 665,148.5 Q651,140 624,127 L600,115 Q578,104 561,89 Q544,74 544,64 L736,64 L736,0 M192,-12 L540,700 L608,700 L260,-12 M72,550 L40,604 L180,688 L228,688 L228,408 L320,408 L320,344 L52,344 L52,408 L152,408 L152,596"/> 
            <glyph glyph-name="¾" unicode="&#xBE;" horiz-adv-x="748" d=" M448,64 L448,112 L636,344 L700,344 L700,124 L748,124 L748,64 L700,64 L700,0 L624,0 L624,64 M34,448 L106,448 Q106,422 125.5,407 Q145,392 176,392 Q246,392 246,444 Q246,496 176,496 L148,496 L148,548 L176,548 Q238,548 238,594 Q238,640 176,640 Q148,640 131,625.5 Q114,611 114,588 L42,588 Q42,640 79.5,668 Q117,696 180,696 Q239,696 275.5,669 Q312,642 312,600 Q312,572 297,551 Q282,530 256,524 L256,521 Q287,514 305.5,491 Q324,468 324,436 Q324,388 285,362 Q246,336 176,336 Q34,336 34,448 M204,-12 L552,700 L620,700 L272,-12 M531,124 L624,124 L624,241"/> 
            <glyph glyph-name="¿" unicode="&#xBF;" horiz-adv-x="468" d=" M208,380 L208,488 L312,488 L312,380 M40,-32 Q40,6 53,37 Q66,68 85.5,86 Q105,104 128,123 Q151,142 170.5,158 Q190,174 203,198 Q216,222 216,252 L216,292 L304,292 L304,264 Q304,212 286.5,174 Q269,136 243.5,114 Q218,92 192.5,73.5 Q167,55 149.5,30 Q132,5 132,-28 Q132,-74 164,-105 Q196,-136 248,-136 Q313,-136 346.5,-95.5 Q380,-55 380,8 L468,8 Q468,-84 411.5,-148 Q355,-212 248,-212 Q156,-212 98,-163 Q40,-114 40,-32"/> 
            <glyph glyph-name="À" unicode="&#xC0;" horiz-adv-x="632" d=" M12,0 L268,688 L376,688 L632,0 L536,0 L471,180 L169,180 L104,0 M322,592 L318,592 L198,260 L442,260 M288,768 L144,932 L248,932 L352,768"/> 
            <glyph glyph-name="Á" unicode="&#xC1;" horiz-adv-x="632" d=" M12,0 L268,688 L376,688 L632,0 L536,0 L471,180 L169,180 L104,0 M322,592 L318,592 L198,260 L442,260 M288,768 L392,932 L496,932 L352,768"/> 
            <glyph glyph-name="Â" unicode="&#xC2;" horiz-adv-x="632" d=" M12,0 L268,688 L376,688 L632,0 L536,0 L471,180 L169,180 L104,0 M322,592 L318,592 L198,260 L442,260 M152,768 L280,932 L360,932 L488,768 L404,768 L320,880 L236,768"/> 
            <glyph glyph-name="Ã" unicode="&#xC3;" horiz-adv-x="632" d=" M12,0 L268,688 L376,688 L632,0 L536,0 L471,180 L169,180 L104,0 M322,592 L318,592 L198,260 L442,260 M156,796 Q158,843 183,873.5 Q208,904 252,904 Q284,904 331,880 Q378,856 392,856 Q428,856 436,904 L484,904 Q482,857 457,826.5 Q432,796 388,796 Q356,796 309,820 Q262,844 248,844 Q212,844 204,796"/> 
            <glyph glyph-name="Ä" unicode="&#xC4;" horiz-adv-x="632" d=" M12,0 L268,688 L376,688 L632,0 L536,0 L471,180 L169,180 L104,0 M322,592 L318,592 L198,260 L442,260 M376,804 L376,896 L464,896 L464,804 M176,804 L176,896 L264,896 L264,804"/> 
            <glyph glyph-name="Å" unicode="&#xC5;" horiz-adv-x="632" d=" M12,0 L268,688 L376,688 L632,0 L536,0 L471,180 L169,180 L104,0 M322,592 L318,592 L198,260 L442,260 M361,764 Q279,764 249.5,791 Q220,818 220,860 Q220,902 249.5,929 Q279,956 320,956 Q361,956 390.5,929 Q420,902 420,860 Q420,818 361,764 M298,808 Q342,808 357,823 Q372,838 372,860 Q372,882 357,897 Q342,912 320,912 Q298,912 283,897 Q268,882 268,860 Q268,838 298,808"/> 
            <glyph glyph-name="Æ" unicode="&#xC6;" horiz-adv-x="1012" d=" M12,0 L508,688 L1004,688 L1004,608 L632,608 L632,390 L928,390 L928,310 L632,310 L632,80 L1012,80 L1012,0 L540,0 L540,160 L235,160 L120,0 M536,580 L292,240 L540,240 L540,580"/> 
            <glyph glyph-name="Ç" unicode="&#xC7;" horiz-adv-x="668" d=" M328,-84 L352,-11 Q215,-3 129.5,95 Q44,193 44,344 Q44,499 136.5,599.5 Q229,700 376,700 Q494,700 570,638 Q646,576 668,472 L573,472 Q533,616 376,616 Q271,616 205.5,540 Q140,464 140,344 Q140,226 205,149 Q270,72 372,72 Q533,72 573,216 L668,216 Q647,116 573.5,54 Q500,-8 388,-12 L388,-36 Q432,-39 456,-63.5 Q480,-88 480,-124 Q480,-167 450,-193.5 Q420,-220 364,-220 L308,-220 L308,-164 L360,-164 Q412,-164 412,-124 Q412,-84 360,-84"/> 
            <glyph glyph-name="È" unicode="&#xC8;" horiz-adv-x="560" d=" M88,0 L88,688 L552,688 L552,608 L180,608 L180,390 L476,390 L476,310 L180,310 L180,80 L560,80 L560,0 M288,768 L144,932 L248,932 L352,768"/> 
            <glyph glyph-name="É" unicode="&#xC9;" horiz-adv-x="560" d=" M88,0 L88,688 L552,688 L552,608 L180,608 L180,390 L476,390 L476,310 L180,310 L180,80 L560,80 L560,0 M288,768 L392,932 L496,932 L352,768"/> 
            <glyph glyph-name="Ê" unicode="&#xCA;" horiz-adv-x="560" d=" M88,0 L88,688 L552,688 L552,608 L180,608 L180,390 L476,390 L476,310 L180,310 L180,80 L560,80 L560,0 M152,768 L280,932 L360,932 L488,768 L404,768 L320,880 L236,768"/> 
            <glyph glyph-name="Ë" unicode="&#xCB;" horiz-adv-x="560" d=" M88,0 L88,688 L552,688 L552,608 L180,608 L180,390 L476,390 L476,310 L180,310 L180,80 L560,80 L560,0 M376,804 L376,896 L464,896 L464,804 M176,804 L176,896 L264,896 L264,804"/> 
            <glyph glyph-name="Ì" unicode="&#xCC;" horiz-adv-x="180" d=" M88,0 L88,688 L180,688 L180,0 M102,768 L-42,932 L62,932 L166,768"/> 
            <glyph glyph-name="Í" unicode="&#xCD;" horiz-adv-x="310" d=" M88,0 L88,688 L180,688 L180,0 M102,768 L206,932 L310,932 L166,768"/> 
            <glyph glyph-name="Î" unicode="&#xCE;" horiz-adv-x="302" d=" M88,0 L88,688 L180,688 L180,0 M-34,768 L94,932 L174,932 L302,768 L218,768 L134,880 L50,768"/> 
            <glyph glyph-name="Ï" unicode="&#xCF;" horiz-adv-x="278" d=" M88,0 L88,688 L180,688 L180,0 M190,804 L190,896 L278,896 L278,804 M-10,804 L-10,896 L78,896 L78,804"/> 
            <glyph glyph-name="Ð" unicode="&#xD0;" horiz-adv-x="660" d=" M4,308 L4,384 L88,384 L88,688 L300,688 Q473,688 566.5,593.5 Q660,499 660,344 Q660,189 566.5,94.5 Q473,0 300,0 L88,0 L88,308 M300,608 L180,608 L180,384 L340,384 L340,308 L180,308 L180,80 L300,80 Q436,80 500,154.5 Q564,229 564,344 Q564,459 500,533.5 Q436,608 300,608"/> 
            <glyph glyph-name="Ñ" unicode="&#xD1;" horiz-adv-x="648" d=" M88,0 L88,688 L176,688 L556,156 L560,156 L556,688 L648,688 L648,0 L560,0 L180,528 L176,528 L180,0 M204,796 Q206,843 231,873.5 Q256,904 300,904 Q332,904 379,880 Q426,856 440,856 Q476,856 484,904 L532,904 Q530,857 505,826.5 Q480,796 436,796 Q404,796 357,820 Q310,844 296,844 Q260,844 252,796"/> 
            <glyph glyph-name="Ò" unicode="&#xD2;" horiz-adv-x="716" d=" M44,189 Q44,499 137.5,599.5 Q231,700 380,700 Q527,700 621.5,599 Q716,498 716,344 Q716,190 621.5,89 Q527,-12 380,-12 Q231,-12 44,189 M140,462 Q140,226 206.5,149 Q273,72 380,72 Q487,72 553.5,149 Q620,226 620,344 Q620,462 553.5,539 Q487,616 380,616 Q273,616 140,462 M348,768 L204,932 L308,932 L412,768"/> 
            <glyph glyph-name="Ó" unicode="&#xD3;" horiz-adv-x="716" d=" M44,189 Q44,499 137.5,599.5 Q231,700 380,700 Q527,700 621.5,599 Q716,498 716,344 Q716,190 621.5,89 Q527,-12 380,-12 Q231,-12 44,189 M140,462 Q140,226 206.5,149 Q273,72 380,72 Q487,72 553.5,149 Q620,226 620,344 Q620,462 553.5,539 Q487,616 380,616 Q273,616 140,462 M348,768 L452,932 L556,932 L412,768"/> 
            <glyph glyph-name="Ô" unicode="&#xD4;" horiz-adv-x="716" d=" M44,189 Q44,499 137.5,599.5 Q231,700 380,700 Q527,700 621.5,599 Q716,498 716,344 Q716,190 621.5,89 Q527,-12 380,-12 Q231,-12 44,189 M140,462 Q140,226 206.5,149 Q273,72 380,72 Q487,72 553.5,149 Q620,226 620,344 Q620,462 553.5,539 Q487,616 380,616 Q273,616 140,462 M212,768 L340,932 L420,932 L548,768 L464,768 L380,880 L296,768"/> 
            <glyph glyph-name="Õ" unicode="&#xD5;" horiz-adv-x="716" d=" M44,189 Q44,499 137.5,599.5 Q231,700 380,700 Q527,700 621.5,599 Q716,498 716,344 Q716,190 621.5,89 Q527,-12 380,-12 Q231,-12 44,189 M140,462 Q140,226 206.5,149 Q273,72 380,72 Q487,72 553.5,149 Q620,226 620,344 Q620,462 553.5,539 Q487,616 380,616 Q273,616 140,462 M216,796 Q218,843 243,873.5 Q268,904 312,904 Q344,904 391,880 Q438,856 452,856 Q488,856 496,904 L544,904 Q542,857 517,826.5 Q492,796 448,796 Q416,796 369,820 Q322,844 308,844 Q272,844 264,796"/> 
            <glyph glyph-name="Ö" unicode="&#xD6;" horiz-adv-x="716" d=" M44,189 Q44,499 137.5,599.5 Q231,700 380,700 Q527,700 621.5,599 Q716,498 716,344 Q716,190 621.5,89 Q527,-12 380,-12 Q231,-12 44,189 M140,462 Q140,226 206.5,149 Q273,72 380,72 Q487,72 553.5,149 Q620,226 620,344 Q620,462 553.5,539 Q487,616 380,616 Q273,616 140,462 M436,804 L436,896 L524,896 L524,804 M236,804 L236,896 L324,896 L324,804"/> 
            <glyph glyph-name="×" unicode="&#xD7;" horiz-adv-x="492" d=" M76,412 L128,464 L284,306 L440,464 L492,412 L335,254 L492,96 L440,44 L284,202 L128,44 L76,96 L232,254"/> 
            <glyph glyph-name="Ø" unicode="&#xD8;" horiz-adv-x="716" d=" M56,-12 L137,89 Q44,190 44,344 Q44,498 138.5,599 Q233,700 380,700 Q489,700 577,636 L628,700 L704,700 L622,597 Q716,497 716,344 Q716,190 620.5,89 Q525,-12 380,-12 Q268,-12 182,50 L132,-12 M620,344 Q620,451 564,526 L237,119 Q298,72 380,72 Q487,72 553.5,149 Q620,226 620,344 M140,344 Q140,236 195,162 L522,568 Q461,616 380,616 Q273,616 206.5,539 Q140,462 140,344"/> 
            <glyph glyph-name="Ù" unicode="&#xD9;" horiz-adv-x="624" d=" M72,272 L72,688 L164,688 L164,272 Q164,176 210,124 Q256,72 348,72 Q440,72 486,124 Q532,176 532,272 L532,688 L624,688 L624,272 Q624,125 550.5,56.5 Q477,-12 348,-12 Q219,-12 145.5,56.5 Q72,125 72,272 M316,768 L172,932 L276,932 L380,768"/> 
            <glyph glyph-name="Ú" unicode="&#xDA;" horiz-adv-x="624" d=" M72,272 L72,688 L164,688 L164,272 Q164,176 210,124 Q256,72 348,72 Q440,72 486,124 Q532,176 532,272 L532,688 L624,688 L624,272 Q624,125 550.5,56.5 Q477,-12 348,-12 Q219,-12 145.5,56.5 Q72,125 72,272 M316,768 L420,932 L524,932 L380,768"/> 
            <glyph glyph-name="Û" unicode="&#xDB;" horiz-adv-x="624" d=" M72,272 L72,688 L164,688 L164,272 Q164,176 210,124 Q256,72 348,72 Q440,72 486,124 Q532,176 532,272 L532,688 L624,688 L624,272 Q624,125 550.5,56.5 Q477,-12 348,-12 Q219,-12 145.5,56.5 Q72,125 72,272 M180,768 L308,932 L388,932 L516,768 L432,768 L348,880 L264,768"/> 
            <glyph glyph-name="Ü" unicode="&#xDC;" horiz-adv-x="624" d=" M72,272 L72,688 L164,688 L164,272 Q164,176 210,124 Q256,72 348,72 Q440,72 486,124 Q532,176 532,272 L532,688 L624,688 L624,272 Q624,125 550.5,56.5 Q477,-12 348,-12 Q219,-12 145.5,56.5 Q72,125 72,272 M404,804 L404,896 L492,896 L492,804 M204,804 L204,896 L292,896 L292,804"/> 
            <glyph glyph-name="Ý" unicode="&#xDD;" horiz-adv-x="596" d=" M256,0 L256,270 L12,688 L116,688 L302,364 L306,364 L500,688 L596,688 L348,277 L348,0 M272,768 L376,932 L480,932 L336,768"/> 
            <glyph glyph-name="Þ" unicode="&#xDE;" horiz-adv-x="592" d=" M88,0 L88,688 L180,688 L180,576 L348,576 Q463,576 527.5,515.5 Q592,455 592,356 Q592,256 527,192 Q462,128 348,128 L180,128 L180,0 M352,496 L180,496 L180,208 L352,208 Q424,208 462,250 Q500,292 500,356 Q500,419 462,457.5 Q424,496 352,496"/> 
            <glyph glyph-name="ß" unicode="&#xDF;" horiz-adv-x="540" d=" M76,0 L76,512 Q76,628 135,686 Q194,744 292,744 Q382,744 429,699.5 Q476,655 476,592 Q476,563 465.5,539 Q455,515 439.5,499.5 Q424,484 408.5,470 Q393,456 382.5,440.5 Q372,425 372,408 Q372,387 389.5,369 Q407,351 431.5,334.5 Q456,318 480.5,298 Q505,278 522.5,245.5 Q540,213 540,172 Q540,91 484.5,45.5 Q429,0 340,0 L256,0 L256,72 L340,72 Q391,72 421.5,96 Q452,120 452,164 Q452,196 435.5,219 Q419,242 395.5,257.5 Q372,273 348.5,289.5 Q325,306 308.5,333.5 Q292,361 292,400 Q292,429 302.5,452 Q313,475 328.5,490 Q344,505 359.5,519 Q375,533 385.5,551.5 Q396,570 396,592 Q396,625 368.5,648.5 Q341,672 288,672 Q164,672 164,512 L164,0"/> 
            <glyph glyph-name="à" unicode="&#xE0;" horiz-adv-x="456" d=" M48,62 Q48,186 86,222.5 Q124,259 208,274 L304,290 Q344,297 356,304 Q368,311 368,328 Q368,374 341,401 Q314,428 264,428 Q212,428 183.5,403 Q155,378 152,336 L68,336 Q71,408 123,454 Q175,500 264,500 Q358,500 407,453 Q456,406 456,320 L456,0 L372,0 L372,65 L368,65 Q326,-12 212,-12 Q135,-12 48,62 M368,204 L368,251 Q354,234 316,228 L224,212 Q136,197 136,132 Q136,99 159.5,79.5 Q183,60 228,60 Q288,60 328,97.5 Q368,135 368,204 M236,568 L92,732 L196,732 L300,568"/> 
            <glyph glyph-name="á" unicode="&#xE1;" horiz-adv-x="456" d=" M48,62 Q48,186 86,222.5 Q124,259 208,274 L304,290 Q344,297 356,304 Q368,311 368,328 Q368,374 341,401 Q314,428 264,428 Q212,428 183.5,403 Q155,378 152,336 L68,336 Q71,408 123,454 Q175,500 264,500 Q358,500 407,453 Q456,406 456,320 L456,0 L372,0 L372,65 L368,65 Q326,-12 212,-12 Q135,-12 48,62 M368,204 L368,251 Q354,234 316,228 L224,212 Q136,197 136,132 Q136,99 159.5,79.5 Q183,60 228,60 Q288,60 328,97.5 Q368,135 368,204 M220,568 L324,732 L428,732 L284,568"/> 
            <glyph glyph-name="â" unicode="&#xE2;" horiz-adv-x="456" d=" M48,62 Q48,186 86,222.5 Q124,259 208,274 L304,290 Q344,297 356,304 Q368,311 368,328 Q368,374 341,401 Q314,428 264,428 Q212,428 183.5,403 Q155,378 152,336 L68,336 Q71,408 123,454 Q175,500 264,500 Q358,500 407,453 Q456,406 456,320 L456,0 L372,0 L372,65 L368,65 Q326,-12 212,-12 Q135,-12 48,62 M368,204 L368,251 Q354,234 316,228 L224,212 Q136,197 136,132 Q136,99 159.5,79.5 Q183,60 228,60 Q288,60 328,97.5 Q368,135 368,204 M92,568 L220,732 L300,732 L428,568 L344,568 L260,680 L176,568"/> 
            <glyph glyph-name="ã" unicode="&#xE3;" horiz-adv-x="456" d=" M48,62 Q48,186 86,222.5 Q124,259 208,274 L304,290 Q344,297 356,304 Q368,311 368,328 Q368,374 341,401 Q314,428 264,428 Q212,428 183.5,403 Q155,378 152,336 L68,336 Q71,408 123,454 Q175,500 264,500 Q358,500 407,453 Q456,406 456,320 L456,0 L372,0 L372,65 L368,65 Q326,-12 212,-12 Q135,-12 48,62 M368,204 L368,251 Q354,234 316,228 L224,212 Q136,197 136,132 Q136,99 159.5,79.5 Q183,60 228,60 Q288,60 328,97.5 Q368,135 368,204 M96,596 Q98,643 123,673.5 Q148,704 192,704 Q224,704 271,680 Q318,656 332,656 Q368,656 376,704 L424,704 Q422,657 397,626.5 Q372,596 328,596 Q296,596 249,620 Q202,644 188,644 Q152,644 144,596"/> 
            <glyph glyph-name="ä" unicode="&#xE4;" horiz-adv-x="456" d=" M48,62 Q48,186 86,222.5 Q124,259 208,274 L304,290 Q344,297 356,304 Q368,311 368,328 Q368,374 341,401 Q314,428 264,428 Q212,428 183.5,403 Q155,378 152,336 L68,336 Q71,408 123,454 Q175,500 264,500 Q358,500 407,453 Q456,406 456,320 L456,0 L372,0 L372,65 L368,65 Q326,-12 212,-12 Q135,-12 48,62 M368,204 L368,251 Q354,234 316,228 L224,212 Q136,197 136,132 Q136,99 159.5,79.5 Q183,60 228,60 Q288,60 328,97.5 Q368,135 368,204 M316,604 L316,696 L404,696 L404,604 M116,604 L116,696 L204,696 L204,604"/> 
            <glyph glyph-name="å" unicode="&#xE5;" horiz-adv-x="456" d=" M48,62 Q48,186 86,222.5 Q124,259 208,274 L304,290 Q344,297 356,304 Q368,311 368,328 Q368,374 341,401 Q314,428 264,428 Q212,428 183.5,403 Q155,378 152,336 L68,336 Q71,408 123,454 Q175,500 264,500 Q358,500 407,453 Q456,406 456,320 L456,0 L372,0 L372,65 L368,65 Q326,-12 212,-12 Q135,-12 48,62 M368,204 L368,251 Q354,234 316,228 L224,212 Q136,197 136,132 Q136,99 159.5,79.5 Q183,60 228,60 Q288,60 328,97.5 Q368,135 368,204 M301,564 Q219,564 189.5,591 Q160,618 160,660 Q160,702 189.5,729 Q219,756 260,756 Q301,756 330.5,729 Q360,702 360,660 Q360,618 301,564 M238,608 Q282,608 297,623 Q312,638 312,660 Q312,682 297,697 Q282,712 260,712 Q238,712 223,697 Q208,682 208,660 Q208,638 238,608"/> 
            <glyph glyph-name="æ" unicode="&#xE6;" horiz-adv-x="808" d=" M68,336 Q74,418 129,459 Q184,500 264,500 Q383,500 428,426 Q488,500 596,500 Q691,500 749.5,438 Q808,376 808,268 L808,232 L460,232 Q463,154 501,109 Q539,64 600,64 Q697,64 716,148 L804,148 Q794,81 737,34.5 Q680,-12 600,-12 Q465,-12 407,90 Q348,-12 212,-12 Q135,-12 91.5,25 Q48,62 48,124 Q48,247 208,274 L304,290 Q344,297 356,304 Q368,311 368,328 Q368,373 342,400.5 Q316,428 264,428 Q217,428 186,404.5 Q155,381 152,336 M228,60 Q289,60 328.5,96.5 Q368,133 368,204 L368,251 Q354,234 316,228 L224,212 Q136,198 136,132 Q136,98 160,79 Q184,60 228,60 M596,424 Q545,424 510,390 Q475,356 464,298 L715,298 Q711,359 679.5,391.5 Q648,424 596,424"/> 
            <glyph glyph-name="ç" unicode="&#xE7;" horiz-adv-x="484" d=" M228,-84 L252,-11 Q153,-4 96.5,64 Q40,132 40,244 Q40,359 105.5,429.5 Q171,500 272,500 Q363,500 418.5,451.5 Q474,403 484,324 L396,324 Q388,369 357,396.5 Q326,424 272,424 Q211,424 171.5,374 Q132,324 132,244 Q132,164 171.5,114 Q211,64 272,64 Q326,64 357,91.5 Q388,119 396,164 L484,164 Q474,89 423,41 Q372,-7 288,-11 L288,-36 Q332,-39 356,-63.5 Q380,-88 380,-124 Q380,-167 350,-193.5 Q320,-220 264,-220 L208,-220 L208,-164 L260,-164 Q312,-164 312,-124 Q312,-84 260,-84"/> 
            <glyph glyph-name="è" unicode="&#xE8;" horiz-adv-x="488" d=" M40,244 Q40,357 106,428.5 Q172,500 272,500 Q369,500 428.5,438 Q488,376 488,268 L488,232 L132,232 Q135,155 174,109.5 Q213,64 276,64 Q327,64 357.5,88 Q388,112 396,148 L484,148 Q474,81 416.5,34.5 Q359,-12 276,-12 Q163,-12 101.5,56.5 Q40,125 40,244 M272,424 Q222,424 185.5,390.5 Q149,357 137,298 L398,298 Q387,424 272,424 M240,568 L96,732 L200,732 L304,568"/> 
            <glyph glyph-name="é" unicode="&#xE9;" horiz-adv-x="488" d=" M40,244 Q40,357 106,428.5 Q172,500 272,500 Q369,500 428.5,438 Q488,376 488,268 L488,232 L132,232 Q135,155 174,109.5 Q213,64 276,64 Q327,64 357.5,88 Q388,112 396,148 L484,148 Q474,81 416.5,34.5 Q359,-12 276,-12 Q163,-12 101.5,56.5 Q40,125 40,244 M272,424 Q222,424 185.5,390.5 Q149,357 137,298 L398,298 Q387,424 272,424 M240,568 L344,732 L448,732 L304,568"/> 
            <glyph glyph-name="ê" unicode="&#xEA;" horiz-adv-x="488" d=" M40,244 Q40,357 106,428.5 Q172,500 272,500 Q369,500 428.5,438 Q488,376 488,268 L488,232 L132,232 Q135,155 174,109.5 Q213,64 276,64 Q327,64 357.5,88 Q388,112 396,148 L484,148 Q474,81 416.5,34.5 Q359,-12 276,-12 Q163,-12 101.5,56.5 Q40,125 40,244 M272,424 Q222,424 185.5,390.5 Q149,357 137,298 L398,298 Q387,424 272,424 M104,568 L232,732 L312,732 L440,568 L356,568 L272,680 L188,568"/> 
            <glyph glyph-name="ë" unicode="&#xEB;" horiz-adv-x="488" d=" M40,244 Q40,357 106,428.5 Q172,500 272,500 Q369,500 428.5,438 Q488,376 488,268 L488,232 L132,232 Q135,155 174,109.5 Q213,64 276,64 Q327,64 357.5,88 Q388,112 396,148 L484,148 Q474,81 416.5,34.5 Q359,-12 276,-12 Q163,-12 101.5,56.5 Q40,125 40,244 M272,424 Q222,424 185.5,390.5 Q149,357 137,298 L398,298 Q387,424 272,424 M328,604 L328,696 L416,696 L416,604 M128,604 L128,696 L216,696 L216,604"/> 
            <glyph glyph-name="ì" unicode="&#xEC;" horiz-adv-x="164" d=" M76,0 L76,488 L164,488 L164,0 M88,568 L-56,732 L48,732 L152,568"/> 
            <glyph glyph-name="í" unicode="&#xED;" horiz-adv-x="296" d=" M76,0 L76,488 L164,488 L164,0 M88,568 L192,732 L296,732 L152,568"/> 
            <glyph glyph-name="î" unicode="&#xEE;" horiz-adv-x="288" d=" M76,0 L76,488 L164,488 L164,0 M-48,568 L80,732 L160,732 L288,568 L204,568 L120,680 L36,568"/> 
            <glyph glyph-name="ï" unicode="&#xEF;" horiz-adv-x="264" d=" M76,0 L76,488 L164,488 L164,0 M176,604 L176,696 L264,696 L264,604 M-24,604 L-24,696 L64,696 L64,604"/> 
            <glyph glyph-name="ð" unicode="&#xF0;" horiz-adv-x="532" d=" M204,520 L172,568 L262,630 Q212,657 132,680 L152,744 Q252,717 327,675 L428,744 L460,696 L379,640 Q454,582 493,495 Q532,408 532,271 L532,268 Q532,136 464,62 Q396,-12 288,-12 Q178,-12 111,55 Q44,122 44,228 Q44,331 113,399.5 Q182,468 280,468 Q321,468 362,453.5 Q403,439 428,408 L433,408 Q397,531 314,596 M136,300 Q136,156 179,110 Q222,64 288,64 Q354,64 397,110 Q440,156 440,228 Q440,302 397.5,347 Q355,392 288,392 Q222,392 136,300"/> 
            <glyph glyph-name="ñ" unicode="&#xF1;" horiz-adv-x="496" d=" M76,0 L76,488 L160,488 L160,416 L164,416 Q206,500 316,500 Q396,500 446,451.5 Q496,403 496,296 L496,0 L408,0 L408,284 Q408,424 296,424 Q239,424 201.5,377.5 Q164,331 164,253 L164,0 M120,596 Q122,643 147,673.5 Q172,704 216,704 Q248,704 295,680 Q342,656 356,656 Q392,656 400,704 L448,704 Q446,657 421,626.5 Q396,596 352,596 Q320,596 273,620 Q226,644 212,644 Q176,644 168,596"/> 
            <glyph glyph-name="ò" unicode="&#xF2;" horiz-adv-x="520" d=" M40,244 Q40,360 107,430 Q174,500 280,500 Q391,500 455.5,430.5 Q520,361 520,244 Q520,128 453,58 Q386,-12 280,-12 Q169,-12 104.5,57.5 Q40,127 40,244 M132,325 Q132,163 173,113.5 Q214,64 280,64 Q346,64 387,113.5 Q428,163 428,244 Q428,327 387.5,375.5 Q347,424 280,424 Q214,424 132,325 M248,568 L104,732 L208,732 L312,568"/> 
            <glyph glyph-name="ó" unicode="&#xF3;" horiz-adv-x="520" d=" M40,244 Q40,360 107,430 Q174,500 280,500 Q391,500 455.5,430.5 Q520,361 520,244 Q520,128 453,58 Q386,-12 280,-12 Q169,-12 104.5,57.5 Q40,127 40,244 M132,325 Q132,163 173,113.5 Q214,64 280,64 Q346,64 387,113.5 Q428,163 428,244 Q428,327 387.5,375.5 Q347,424 280,424 Q214,424 132,325 M248,568 L352,732 L456,732 L312,568"/> 
            <glyph glyph-name="ô" unicode="&#xF4;" horiz-adv-x="520" d=" M40,244 Q40,360 107,430 Q174,500 280,500 Q391,500 455.5,430.5 Q520,361 520,244 Q520,128 453,58 Q386,-12 280,-12 Q169,-12 104.5,57.5 Q40,127 40,244 M132,325 Q132,163 173,113.5 Q214,64 280,64 Q346,64 387,113.5 Q428,163 428,244 Q428,327 387.5,375.5 Q347,424 280,424 Q214,424 132,325 M112,568 L240,732 L320,732 L448,568 L364,568 L280,680 L196,568"/> 
            <glyph glyph-name="õ" unicode="&#xF5;" horiz-adv-x="520" d=" M40,244 Q40,360 107,430 Q174,500 280,500 Q391,500 455.5,430.5 Q520,361 520,244 Q520,128 453,58 Q386,-12 280,-12 Q169,-12 104.5,57.5 Q40,127 40,244 M132,325 Q132,163 173,113.5 Q214,64 280,64 Q346,64 387,113.5 Q428,163 428,244 Q428,327 387.5,375.5 Q347,424 280,424 Q214,424 132,325 M116,596 Q118,643 143,673.5 Q168,704 212,704 Q244,704 291,680 Q338,656 352,656 Q388,656 396,704 L444,704 Q442,657 417,626.5 Q392,596 348,596 Q316,596 269.5,620 Q223,644 208,644 Q172,644 164,596"/> 
            <glyph glyph-name="ö" unicode="&#xF6;" horiz-adv-x="520" d=" M40,244 Q40,360 107,430 Q174,500 280,500 Q391,500 455.5,430.5 Q520,361 520,244 Q520,128 453,58 Q386,-12 280,-12 Q169,-12 104.5,57.5 Q40,127 40,244 M132,325 Q132,163 173,113.5 Q214,64 280,64 Q346,64 387,113.5 Q428,163 428,244 Q428,327 387.5,375.5 Q347,424 280,424 Q214,424 132,325 M336,604 L336,696 L424,696 L424,604 M136,604 L136,696 L224,696 L224,604"/> 
            <glyph glyph-name="÷" unicode="&#xF7;" horiz-adv-x="512" d=" M236,380 L236,480 L332,480 L332,380 M56,216 L56,292 L512,292 L512,216 M236,26 L236,126 L332,126 L332,26"/> 
            <glyph glyph-name="ø" unicode="&#xF8;" horiz-adv-x="520" d=" M40,-12 L100,62 Q40,131 40,244 Q40,360 107,430 Q174,500 280,500 Q362,500 422,459 L456,500 L520,500 L459,425 Q520,356 520,244 Q520,128 453,58 Q386,-12 280,-12 Q195,-12 137,29 L104,-12 M132,244 Q132,178 158,134 L369,393 Q332,424 280,424 Q214,424 173,374.5 Q132,325 132,244 M428,244 Q428,310 402,354 L191,95 Q228,64 280,64 Q346,64 387,113.5 Q428,163 428,244"/> 
            <glyph glyph-name="ù" unicode="&#xF9;" horiz-adv-x="484" d=" M68,192 L68,488 L156,488 L156,204 Q156,64 268,64 Q325,64 360.5,111 Q396,158 396,236 L396,488 L484,488 L484,0 L400,0 L400,72 L396,72 Q354,-12 248,-12 Q168,-12 118,36.5 Q68,85 68,192 M250,568 L106,732 L210,732 L314,568"/> 
            <glyph glyph-name="ú" unicode="&#xFA;" horiz-adv-x="484" d=" M68,192 L68,488 L156,488 L156,204 Q156,64 268,64 Q325,64 360.5,111 Q396,158 396,236 L396,488 L484,488 L484,0 L400,0 L400,72 L396,72 Q354,-12 248,-12 Q168,-12 118,36.5 Q68,85 68,192 M250,568 L354,732 L458,732 L314,568"/> 
            <glyph glyph-name="û" unicode="&#xFB;" horiz-adv-x="484" d=" M68,192 L68,488 L156,488 L156,204 Q156,64 268,64 Q325,64 360.5,111 Q396,158 396,236 L396,488 L484,488 L484,0 L400,0 L400,72 L396,72 Q354,-12 248,-12 Q168,-12 118,36.5 Q68,85 68,192 M114,568 L242,732 L322,732 L450,568 L366,568 L282,680 L198,568"/> 
            <glyph glyph-name="ü" unicode="&#xFC;" horiz-adv-x="484" d=" M68,192 L68,488 L156,488 L156,204 Q156,64 268,64 Q325,64 360.5,111 Q396,158 396,236 L396,488 L484,488 L484,0 L400,0 L400,72 L396,72 Q354,-12 248,-12 Q168,-12 118,36.5 Q68,85 68,192 M338,604 L338,696 L426,696 L426,604 M138,604 L138,696 L226,696 L226,604"/> 
            <glyph glyph-name="ý" unicode="&#xFD;" horiz-adv-x="464" d=" M33,-152 L65,-152 Q149,-152 185,-52 L196,-21 L4,488 L100,488 L236,96 L240,96 L376,488 L464,488 L257,-76 Q202,-228 81,-228 L33,-228 M200,568 L304,732 L408,732 L264,568"/> 
            <glyph glyph-name="þ" unicode="&#xFE;" horiz-adv-x="544" d=" M544,365 Q544,131 480,59.5 Q416,-12 320,-12 Q208,-12 164,76 L160,76 Q164,12 164,-88 L164,-220 L76,-220 L76,732 L164,732 L164,576 Q164,476 160,412 L164,412 Q208,500 328,500 Q423,500 544,365 M452,248 Q452,332 411.5,378 Q371,424 308,424 Q247,424 206.5,378.5 Q166,333 164,252 L164,244 Q164,160 205,112 Q246,64 308,64 Q370,64 411,113.5 Q452,163 452,248"/> 
            <glyph glyph-name="ÿ" unicode="&#xFF;" horiz-adv-x="464" d=" M33,-152 L65,-152 Q149,-152 185,-52 L196,-21 L4,488 L100,488 L236,96 L240,96 L376,488 L464,488 L257,-76 Q202,-228 81,-228 L33,-228 M288,604 L288,696 L376,696 L376,604 M88,604 L88,696 L176,696 L176,604"/> 
            <glyph glyph-name="ı" unicode="&#x131;" horiz-adv-x="164" d=" M76,0 L76,488 L164,488 L164,0"/> 
            <glyph glyph-name="Ł" unicode="&#x141;" horiz-adv-x="516" d=" M28,184 L-16,244 L88,318 L88,688 L180,688 L180,384 L318,484 L362,424 L180,293 L180,80 L516,80 L516,0 L88,0 L88,227"/> 
            <glyph glyph-name="ł" unicode="&#x142;" horiz-adv-x="264" d=" M-20,256 L76,347 L76,732 L164,732 L164,431 L224,488 L264,440 L164,345 L164,0 L76,0 L76,261 L20,208"/> 
            <glyph glyph-name="Œ" unicode="&#x152;" horiz-adv-x="980" d=" M972,608 L600,608 L600,390 L896,390 L896,310 L600,310 L600,80 L980,80 L980,0 L404,0 Q231,0 137.5,94.5 Q44,189 44,344 Q44,499 137.5,593.5 Q231,688 404,688 L972,688 M140,459 Q140,229 204,154.5 Q268,80 404,80 L508,80 L508,608 L404,608 Q268,608 140,459"/> 
            <glyph glyph-name="œ" unicode="&#x153;" horiz-adv-x="872" d=" M40,244 Q40,360 107,430 Q174,500 280,500 Q411,500 473,400 Q536,500 656,500 Q753,500 812.5,438 Q872,376 872,268 L872,232 L516,232 Q519,155 558,109.5 Q597,64 660,64 Q711,64 741.5,88 Q772,112 780,148 L868,148 Q858,81 800.5,34.5 Q743,-12 660,-12 Q527,-12 469,86 Q406,-12 280,-12 Q169,-12 104.5,57.5 Q40,127 40,244 M132,325 Q132,163 173,113.5 Q214,64 280,64 Q346,64 387,113.5 Q428,163 428,244 Q428,327 387.5,375.5 Q347,424 280,424 Q214,424 132,325 M656,424 Q607,424 570.5,390 Q534,356 521,298 L782,298 Q771,424 656,424"/> 
            <glyph glyph-name="Š" unicode="&#x160;" horiz-adv-x="592" d=" M56,196 L148,196 Q148,138 194.5,101 Q241,64 320,64 Q404,64 450,97.5 Q496,131 496,192 Q496,229 472.5,252.5 Q449,276 411,287 Q373,298 327,306 Q281,314 235,325.5 Q189,337 151,355 Q113,373 89.5,409.5 Q66,446 66,500 Q66,588 136,644 Q206,700 320,700 Q433,700 502.5,647.5 Q572,595 572,504 L480,504 Q480,560 435.5,592 Q391,624 320,624 Q250,624 205,594 Q160,564 160,508 Q160,472 184,449 Q208,426 246,415 Q284,404 330,396 Q376,388 422,376.5 Q468,365 506,346.5 Q544,328 568,290 Q592,252 592,196 Q592,102 519.5,45 Q447,-12 320,-12 Q196,-12 126,44.5 Q56,101 56,196 M280,768 L152,932 L236,932 L320,820 L404,932 L488,932 L360,768"/> 
            <glyph glyph-name="š" unicode="&#x161;" horiz-adv-x="448" d=" M40,140 L124,140 Q124,99 158.5,77.5 Q193,56 240,56 Q360,56 360,136 Q360,164 341.5,178.5 Q323,193 284,200 L192,216 Q50,240 50,348 Q50,418 105,459 Q160,500 244,500 Q328,500 382,463 Q436,426 436,352 L352,352 Q352,390 322.5,411 Q293,432 244,432 Q197,432 166.5,412 Q136,392 136,356 Q136,305 220,291 L312,275 Q376,264 412,234.5 Q448,205 448,144 Q448,69 391.5,28.5 Q335,-12 240,-12 Q150,-12 95,27.5 Q40,67 40,140 M204,568 L76,732 L160,732 L244,620 L328,732 L412,732 L284,568"/> 
            <glyph glyph-name="Ÿ" unicode="&#x178;" horiz-adv-x="596" d=" M256,0 L256,270 L12,688 L116,688 L302,364 L306,364 L500,688 L596,688 L348,277 L348,0 M360,804 L360,896 L448,896 L448,804 M160,804 L160,896 L248,896 L248,804"/> 
            <glyph glyph-name="Ž" unicode="&#x17D;" horiz-adv-x="548" d=" M56,610 L56,688 L548,688 L548,628 L151,78 L544,78 L544,0 L36,0 L36,60 L433,610 M252,768 L124,932 L208,932 L292,820 L376,932 L460,932 L332,768"/> 
            <glyph glyph-name="ž" unicode="&#x17E;" horiz-adv-x="412" d=" M32,416 L32,488 L408,488 L408,428 L149,72 L412,72 L412,0 L36,0 L36,52 L300,416 M180,568 L52,732 L136,732 L220,620 L304,732 L388,732 L260,568"/> 
            <glyph glyph-name="ƒ" unicode="&#x192;" horiz-adv-x="543" d=" M96,292 L96,356 L222,356 L241,536 Q250,618 292.5,659 Q335,700 402,700 Q543,700 533,552 L530,508 L450,508 L453,552 Q458,628 398,628 Q339,628 329,536 L310,356 L464,356 L464,292 L303,292 L270,-28 Q261,-110 218.5,-151 Q176,-192 109,-192 Q-32,-192 -22,-44 L-19,0 L61,0 L58,-44 Q53,-120 113,-120 Q172,-120 182,-28 L215,292"/> 
            <glyph glyph-name="ˆ" unicode="&#x2C6;" horiz-adv-x="448" d=" M112,568 L240,732 L320,732 L448,568 L364,568 L280,680 L196,568"/> 
            <glyph glyph-name="ˇ" unicode="&#x2C7;" horiz-adv-x="448" d=" M240,568 L112,732 L196,732 L280,620 L364,732 L448,732 L320,568"/> 
            <glyph glyph-name="˘" unicode="&#x2D8;" horiz-adv-x="424" d=" M334,580 Q226,580 185,613.5 Q144,647 136,720 L192,720 Q205,636 280,636 Q355,636 368,720 L424,720 Q416,647 334,580"/> 
            <glyph glyph-name="˙" unicode="&#x2D9;" horiz-adv-x="324" d=" M236,604 L236,696 L324,696 L324,604"/> 
            <glyph glyph-name="˚" unicode="&#x2DA;" horiz-adv-x="380" d=" M321,564 Q239,564 209.5,591 Q180,618 180,660 Q180,702 209.5,729 Q239,756 280,756 Q321,756 350.5,729 Q380,702 380,660 Q380,618 321,564 M258,608 Q302,608 317,623 Q332,638 332,660 Q332,682 317,697 Q302,712 280,712 Q258,712 243,697 Q228,682 228,660 Q228,638 258,608"/> 
            <glyph glyph-name="˛" unicode="&#x2DB;" horiz-adv-x="348" d=" M196,-128 Q196,-65 276,0 L324,0 Q264,-63 264,-112 Q264,-160 320,-160 L348,-160 L348,-220 L308,-220 Q255,-220 225.5,-194.5 Q196,-169 196,-128"/> 
            <glyph glyph-name="˜" unicode="&#x2DC;" horiz-adv-x="444" d=" M116,596 Q118,643 143,673.5 Q168,704 212,704 Q244,704 291,680 Q338,656 352,656 Q388,656 396,704 L444,704 Q442,657 417,626.5 Q392,596 348,596 Q316,596 269.5,620 Q223,644 208,644 Q172,644 164,596"/> 
            <glyph glyph-name="˝" unicode="&#x2DD;" horiz-adv-x="544" d=" M336,568 L440,732 L544,732 L400,568 M156,568 L260,732 L364,732 L220,568"/> 
            <glyph glyph-name="π" unicode="&#x3C0;" horiz-adv-x="504" d=" M84,0 L84,488 L504,488 L504,0 L416,0 L416,412 L172,412 L172,0"/> 
            <glyph glyph-name="–" unicode="&#x2013;" horiz-adv-x="496" d=" M60,212 L60,292 L496,292 L496,212"/> 
            <glyph glyph-name="—" unicode="&#x2014;" horiz-adv-x="780" d=" M60,212 L60,292 L780,292 L780,212"/> 
            <glyph glyph-name="‘" unicode="&#x2018;" horiz-adv-x="176" d=" M72,436 L72,536 L112,688 L160,688 L132,544 L176,544 L176,436"/> 
            <glyph glyph-name="’" unicode="&#x2019;" horiz-adv-x="176" d=" M88,436 L116,580 L72,580 L72,688 L176,688 L176,588 L136,436"/> 
            <glyph glyph-name="‚" unicode="&#x201A;" horiz-adv-x="176" d=" M116,0 L72,0 L72,108 L176,108 L176,8 L136,-144 L88,-144"/> 
            <glyph glyph-name="“" unicode="&#x201C;" horiz-adv-x="356" d=" M72,436 L72,536 L112,688 L160,688 L132,544 L176,544 L176,436 M252,436 L252,536 L292,688 L340,688 L312,544 L356,544 L356,436"/> 
            <glyph glyph-name="”" unicode="&#x201D;" horiz-adv-x="356" d=" M88,436 L116,580 L72,580 L72,688 L176,688 L176,588 L136,436 M268,436 L296,580 L252,580 L252,688 L356,688 L356,588 L316,436"/> 
            <glyph glyph-name="„" unicode="&#x201E;" horiz-adv-x="356" d=" M116,0 L72,0 L72,108 L176,108 L176,8 L136,-144 L88,-144 M296,0 L252,0 L252,108 L356,108 L356,8 L316,-144 L268,-144"/> 
            <glyph glyph-name="†" unicode="&#x2020;" horiz-adv-x="396" d=" M44,448 L44,520 L180,520 L180,688 L260,688 L260,520 L396,520 L396,448 L260,448 L260,0 L180,0 L180,448"/> 
            <glyph glyph-name="‡" unicode="&#x2021;" horiz-adv-x="396" d=" M44,448 L44,520 L180,520 L180,688 L260,688 L260,520 L396,520 L396,448 L260,448 L260,236 L396,236 L396,164 L260,164 L260,0 L180,0 L180,164 L44,164 L44,236 L180,236 L180,448"/> 
            <glyph glyph-name="•" unicode="&#x2022;" horiz-adv-x="416" d=" M317,80 Q171,80 121.5,129.5 Q72,179 72,252 Q72,325 121.5,374.5 Q171,424 244,424 Q317,424 366.5,374.5 Q416,325 416,252 Q416,179 317,80"/> 
            <glyph glyph-name="…" unicode="&#x2026;" horiz-adv-x="700" d=" M588,0 L588,116 L700,116 L700,0 M332,0 L332,116 L444,116 L444,0 M76,0 L76,116 L188,116 L188,0"/> 
            <glyph glyph-name="‰" unicode="&#x2030;" horiz-adv-x="1100" d=" M250,336 Q102,336 65,386 Q28,436 28,516 Q28,596 65,646 Q102,696 176,696 Q250,696 287,646 Q324,596 324,516 Q324,436 250,336 M674,-8 Q526,-8 489,42 Q452,92 452,172 Q452,252 489,302 Q526,352 600,352 Q674,352 711,302 Q748,252 748,172 Q748,92 674,-8 M1026,-8 Q878,-8 841,42 Q804,92 804,172 Q804,252 841,302 Q878,352 952,352 Q1026,352 1063,302 Q1100,252 1100,172 Q1100,92 1026,-8 M180,-12 L528,700 L596,700 L248,-12 M104,396 Q248,396 248,516 Q248,636 176,636 Q104,636 104,396 M528,52 Q672,52 672,172 Q672,292 600,292 Q528,292 528,52 M880,52 Q1024,52 1024,172 Q1024,292 952,292 Q880,292 880,52"/> 
            <glyph glyph-name="‹" unicode="&#x2039;" horiz-adv-x="268" d=" M196,48 L52,252 L196,456 L268,456 L152,252 L268,48"/> 
            <glyph glyph-name="›" unicode="&#x203A;" horiz-adv-x="268" d=" M52,48 L168,252 L52,456 L124,456 L268,252 L124,48"/> 
            <glyph glyph-name="⁄" unicode="&#x2044;" horiz-adv-x="244" d=" M-172,-12 L176,700 L244,700 L-104,-12"/> 
            <glyph glyph-name="€" unicode="&#x20AC;" horiz-adv-x="552" d=" M16,396 L32,452 L88,452 Q108,566 170.5,633 Q233,700 336,700 Q515,700 552,520 L467,520 Q450,574 421,599 Q392,624 340,624 Q277,624 236.5,579 Q196,534 181,452 L384,452 L368,396 L173,396 Q172,379 172,344 Q172,317 173,304 L364,304 L348,248 L179,248 Q193,160 234,112 Q275,64 340,64 Q388,64 415,84 Q442,104 460,148 L546,148 Q505,-12 336,-12 Q230,-12 167,58 Q104,128 87,248 L-4,248 L12,304 L81,304 Q80,317 80,344 Q80,379 82,396"/> 
            <glyph glyph-name="™" unicode="&#x2122;" horiz-adv-x="764" d=" M360,344 L360,688 L460,688 L560,440 L564,440 L664,688 L764,688 L764,344 L692,344 L696,592 L692,592 L592,344 L532,344 L432,592 L428,592 L432,344 M4,628 L4,688 L312,688 L312,628 L196,628 L196,344 L124,344 L124,628"/> 
            <glyph glyph-name="Ω" unicode="&#x2126;" horiz-adv-x="648" d=" M408,0 L408,212 Q467,229 511.5,282.5 Q556,336 556,416 Q556,509 498.5,566.5 Q441,624 348,624 Q255,624 197.5,566.5 Q140,509 140,416 Q140,336 184.5,282.5 Q229,229 288,212 L288,0 L60,0 L60,76 L204,76 L204,166 Q135,199 91.5,264 Q48,329 48,416 Q48,538 131.5,619 Q215,700 348,700 Q481,700 564.5,619 Q648,538 648,416 Q648,330 604.5,265 Q561,200 492,166 L492,76 L636,76 L636,0"/> 
            <glyph glyph-name="∂" unicode="&#x2202;" horiz-adv-x="520" d=" M20,192 Q20,303 90,371.5 Q160,440 264,440 Q318,440 363,416.5 Q408,393 426,354 Q428,386 428,400 Q428,515 388.5,569.5 Q349,624 288,624 Q231,624 199,594.5 Q167,565 156,516 L68,516 Q86,601 143.5,650.5 Q201,700 296,700 Q392,700 456,625.5 Q520,551 520,400 Q520,309 503.5,236.5 Q487,164 459,118.5 Q431,73 392.5,43 Q354,13 313.5,0.5 Q273,-12 228,-12 Q141,-12 80.5,43.5 Q20,99 20,192 M240,64 Q304,64 352,111.5 Q400,159 400,228 Q400,290 364,327 Q328,364 268,364 Q202,364 157,317.5 Q112,271 112,196 Q112,136 148,100 Q184,64 240,64"/> 
            <glyph glyph-name="∆" unicode="&#x2206;" horiz-adv-x="616" d=" M28,0 L268,688 L376,688 L616,0 M322,604 L318,604 L141,76 L498,76"/> 
            <glyph glyph-name="∏" unicode="&#x220F;" horiz-adv-x="632" d=" M92,0 L92,688 L632,688 L632,0 L544,0 L544,612 L180,612 L180,0"/> 
            <glyph glyph-name="∑" unicode="&#x2211;" horiz-adv-x="508" d=" M24,0 L24,53 L244,340 L32,628 L32,688 L492,688 L492,612 L144,612 L344,344 L132,76 L508,76 L508,0"/> 
            <glyph glyph-name="−" unicode="&#x2212;" horiz-adv-x="512" d=" M56,216 L56,292 L512,292 L512,216"/> 
            <glyph glyph-name="√" unicode="&#x221A;" horiz-adv-x="600" d=" M28,304 L28,380 L168,424 L298,96 L302,96 L512,688 L600,688 L352,0 L252,0 L115,331"/> 
            <glyph glyph-name="∞" unicode="&#x221E;" horiz-adv-x="684" d=" M188,88 Q115,88 69.5,134 Q24,180 24,252 Q24,324 69.5,370 Q115,416 188,416 Q285,416 356,311 Q431,416 520,416 Q593,416 638.5,370 Q684,324 684,252 Q684,180 638.5,134 Q593,88 520,88 Q422,88 352,192 Q277,88 188,88 M184,160 Q245,160 312,252 Q245,344 184,344 Q146,344 123,317 Q100,290 100,252 Q100,214 123,187 Q146,160 184,160 M396,252 Q463,160 524,160 Q562,160 585,187 Q608,214 608,252 Q608,290 585,317 Q562,344 524,344 Q463,344 396,252"/> 
            <glyph glyph-name="∫" unicode="&#x222B;" horiz-adv-x="332" d=" M32,-108 L56,-108 Q106,-108 129.5,-82.5 Q153,-57 153.5,-16 Q154,25 152,76 L124,572 Q121,628 125.5,669 Q130,710 147.5,747.5 Q165,785 203,804.5 Q241,824 300,824 L332,824 L332,748 L308,748 Q258,748 234.5,722.5 Q211,697 210.5,656 Q210,615 212,564 L240,68 Q241,28 240,-8.5 Q239,-45 228,-77 Q217,-109 198.5,-133 Q180,-157 145.5,-170.5 Q111,-184 64,-184 L32,-184"/> 
            <glyph glyph-name="≈" unicode="&#x2248;" horiz-adv-x="512" d=" M56,284 Q56,358 92.5,397 Q129,436 184,436 Q223,436 260,417 Q297,398 328.5,379 Q360,360 384,360 Q436,360 436,436 L512,436 Q512,362 476.5,323 Q441,284 388,284 Q349,284 310.5,304 Q272,324 240,344 Q208,364 184,364 Q132,364 132,284 M56,76 Q56,150 92.5,189 Q129,228 184,228 Q223,228 260,209 Q297,190 328.5,171 Q360,152 384,152 Q436,152 436,228 L512,228 Q512,154 476.5,115 Q441,76 388,76 Q349,76 310.5,96 Q272,116 240,136 Q208,156 184,156 Q132,156 132,76"/> 
            <glyph glyph-name="≠" unicode="&#x2260;" horiz-adv-x="512" d=" M56,320 L56,396 L318,396 L396,536 L460,500 L402,396 L512,396 L512,320 L360,320 L287,188 L512,188 L512,112 L245,112 L168,-28 L104,8 L161,112 L56,112 L56,188 L203,188 L276,320"/> 
            <glyph glyph-name="≤" unicode="&#x2264;" horiz-adv-x="496" d=" M72,320 L72,396 L496,576 L496,496 L161,360 L496,224 L496,140 M72,0 L72,76 L496,76 L496,0"/> 
            <glyph glyph-name="≥" unicode="&#x2265;" horiz-adv-x="496" d=" M496,396 L496,320 L72,140 L72,220 L407,356 L72,492 L72,576 M72,0 L72,76 L496,76 L496,0"/> 
            <glyph glyph-name="◊" unicode="&#x25CA;" horiz-adv-x="608" d=" M280,0 L36,344 L280,688 L364,688 L608,344 L364,0 M322,616 L318,616 L130,347 L322,72 L326,72 L514,341"/> 
            <glyph glyph-name="" unicode="&#xE08E;" horiz-adv-x="176" d=" M88,0 L88,520 L176,520 L176,0"/> 
            <glyph glyph-name="" unicode="&#xE0A4;" horiz-adv-x="996" d=" M44,148 L132,148 Q132,106 166,83 Q200,60 260,60 Q388,60 388,144 Q388,178 353.5,195 Q319,212 270,219 Q221,226 172,237 Q123,248 88.5,281 Q54,314 54,372 Q54,444 111.5,488 Q169,532 264,532 Q357,532 410.5,490 Q464,448 464,376 L380,376 Q380,415 348,437.5 Q316,460 264,460 Q144,460 144,380 Q144,350 169,332 Q194,314 231,308.5 Q268,303 312,294 Q356,285 393,273.5 Q430,262 455,231 Q480,200 480,152 Q480,76 422,32 Q364,-12 260,-12 Q159,-12 101.5,31 Q44,74 44,148 M560,148 L648,148 Q648,106 682,83 Q716,60 776,60 Q904,60 904,144 Q904,178 869.5,195 Q835,212 786,219 Q737,226 688,237 Q639,248 604.5,281 Q570,314 570,372 Q570,444 627.5,488 Q685,532 780,532 Q873,532 926.5,490 Q980,448 980,376 L896,376 Q896,415 864,437.5 Q832,460 780,460 Q660,460 660,380 Q660,350 685,332 Q710,314 747,308.5 Q784,303 828,294 Q872,285 909,273.5 Q946,262 971,231 Q996,200 996,152 Q996,76 938,32 Q880,-12 776,-12 Q675,-12 617.5,31 Q560,74 560,148"/> 
            <glyph glyph-name="" unicode="&#xE103;" horiz-adv-x="488" d=" M396,0 L396,416 L184,416 L184,0 L96,0 L96,416 L4,416 L4,488 L96,488 L96,568 Q96,732 260,732 L316,732 L316,656 L268,656 Q222,656 203,633.5 Q184,611 184,564 L184,488 L484,488 L484,0 M392,632 L392,732 L488,732 L488,632"/> 
            <glyph glyph-name="" unicode="&#xE104;" horiz-adv-x="484" d=" M96,0 L96,416 L4,416 L4,488 L96,488 L96,568 Q96,732 260,732 L484,732 L484,0 L396,0 L396,656 L268,656 Q222,656 203,633.5 Q184,611 184,564 L184,488 L292,488 L292,416 L184,416 L184,0"/> 
            <glyph glyph-name="" unicode="&#xE105;" horiz-adv-x="320" d=" M72,550 L40,604 L180,688 L228,688 L228,408 L320,408 L320,344 L52,344 L52,408 L152,408 L152,596"/> 
            <glyph glyph-name="" unicode="&#xE107;" horiz-adv-x="312" d=" M32,344 Q32,414 62,450.5 Q92,487 144,513 L168,525 Q236,559 236,588 Q236,636 176,636 Q113,636 108,572 L36,572 Q38,635 77.5,665.5 Q117,696 176,696 Q238,696 275,668.5 Q312,641 312,590 Q312,567 303,548.5 Q294,530 274.5,515.5 Q255,501 241,492.5 Q227,484 200,471 L176,459 Q154,448 137,433 Q120,418 120,408 L312,408 L312,344"/> 
            <glyph glyph-name="" unicode="&#xE108;" horiz-adv-x="324" d=" M34,448 L106,448 Q106,422 125.5,407 Q145,392 176,392 Q246,392 246,444 Q246,496 176,496 L148,496 L148,548 L176,548 Q238,548 238,594 Q238,640 176,640 Q148,640 131,625.5 Q114,611 114,588 L42,588 Q42,640 79.5,668 Q117,696 180,696 Q239,696 275.5,669 Q312,642 312,600 Q312,572 297,551 Q282,530 256,524 L256,521 Q287,514 305.5,491 Q324,468 324,436 Q324,388 285,362 Q246,336 176,336 Q34,336 34,448"/> 
            <glyph glyph-name="" unicode="&#xF6F9;" horiz-adv-x="444" d=" M36,112 L-4,164 L88,230 L88,520 L176,520 L176,294 L284,372 L324,320 L176,213 L176,76 L444,76 L444,0 L88,0 L88,149"/> 
            <glyph glyph-name="" unicode="&#xF6FA;" horiz-adv-x="812" d=" M320,0 Q191,0 117.5,71.5 Q44,143 44,260 Q44,376 117,448 Q190,520 320,520 L804,520 L804,444 L512,444 L512,302 L748,302 L748,228 L512,228 L512,76 L812,76 L812,0 M136,339 Q136,181 181,128.5 Q226,76 320,76 L424,76 L424,444 L320,444 Q226,444 136,339"/> 
            <glyph glyph-name="" unicode="&#xF6FD;" horiz-adv-x="480" d=" M44,148 L132,148 Q132,106 166,83 Q200,60 260,60 Q388,60 388,144 Q388,178 353.5,195 Q319,212 270,219 Q221,226 172,237 Q123,248 88.5,281 Q54,314 54,372 Q54,444 111.5,488 Q169,532 264,532 Q357,532 410.5,490 Q464,448 464,376 L380,376 Q380,415 348,437.5 Q316,460 264,460 Q144,460 144,380 Q144,350 169,332 Q194,314 231,308.5 Q268,303 312,294 Q356,285 393,273.5 Q430,262 455,231 Q480,200 480,152 Q480,76 422,32 Q364,-12 260,-12 Q159,-12 101.5,31 Q44,74 44,148 M224,600 L96,764 L180,764 L264,652 L348,764 L432,764 L304,600"/> 
            <glyph glyph-name="" unicode="&#xF6FF;" horiz-adv-x="460" d=" M52,444 L52,520 L460,520 L460,464 L157,76 L456,76 L456,0 L40,0 L40,56 L342,444 M214,600 L86,764 L170,764 L254,652 L338,764 L422,764 L294,600"/> 
            <glyph glyph-name="" unicode="&#xF721;" horiz-adv-x="192" d=" M116,152 L88,376 L88,520 L192,520 L192,376 L164,152 M88,0 L88,104 L192,104 L192,0"/> 
            <glyph glyph-name="" unicode="&#xF726;" horiz-adv-x="578" d=" M48,138 Q48,192 81,226 Q114,260 171,287 Q139,322 126.5,347 Q114,372 114,401 Q114,454 153.5,491.5 Q193,529 266,529 Q338,529 375.5,497 Q413,465 413,409 Q413,360 380,329.5 Q347,299 288,272 L424,144 Q446,187 446,244 L446,260 L522,260 L522,245 Q522,161 478,93 L578,0 L477,0 L432,42 Q364,-12 258,-12 Q159,-12 103.5,28.5 Q48,69 48,138 M260,60 Q333,60 378,91 L218,240 Q137,199 137,144 Q137,105 171.5,82.5 Q206,60 260,60 M191,402 Q191,370 241,317 Q287,338 310.5,357 Q334,376 334,404 Q334,464 261,464 Q228,464 209.5,446.5 Q191,429 191,402"/> 
            <glyph glyph-name="" unicode="&#xF730;" horiz-adv-x="544" d=" M40,244 Q40,357 111.5,428.5 Q183,500 292,500 Q406,500 475,429 Q544,358 544,244 Q544,131 472.5,59.5 Q401,-12 292,-12 Q178,-12 109,59 Q40,130 40,244 M132,324 Q132,164 177,114 Q222,64 292,64 Q362,64 407,114 Q452,164 452,244 Q452,327 407,375.5 Q362,424 292,424 Q222,424 132,324"/> 
            <glyph glyph-name="" unicode="&#xF731;" horiz-adv-x="260" d=" M52,296 L12,364 L192,488 L260,488 L260,0 L172,0 L172,379"/> 
            <glyph glyph-name="" unicode="&#xF732;" horiz-adv-x="448" d=" M40,0 Q40,67 63,114.5 Q86,162 119,186.5 Q152,211 204,232 L264,256 Q291,267 304,273 Q317,279 332.5,290 Q348,301 354,315 Q360,329 360,348 Q360,379 335,403.5 Q310,428 252,428 Q134,428 124,312 L44,312 Q46,379 79,423 Q112,467 156,483.5 Q200,500 252,500 Q342,500 395,458.5 Q448,417 448,348 Q448,320 439,297 Q430,274 419,260 Q408,246 384,231.5 Q360,217 346,211 Q332,205 300,192 L240,168 Q144,130 144,76 L448,76 L448,0"/> 
            <glyph glyph-name="" unicode="&#xF733;" horiz-adv-x="488" d=" M20,8 L104,8 Q104,-63 144.5,-99.5 Q185,-136 252,-136 Q318,-136 359,-102 Q400,-68 400,-9 Q400,48 357.5,83 Q315,118 252,118 L200,118 L200,194 L252,194 Q304,194 340,227.5 Q376,261 376,313 Q376,365 340.5,394.5 Q305,424 252,424 Q198,424 163,392.5 Q128,361 128,300 L48,300 Q48,391 104,445.5 Q160,500 252,500 Q346,500 403,448 Q460,396 460,314 Q460,265 430,220 Q400,175 360,160 L360,156 Q415,141 451.5,94.5 Q488,48 488,-12 Q488,-104 421,-158 Q354,-212 252,-212 Q145,-212 82.5,-156 Q20,-100 20,8"/> 
            <glyph glyph-name="" unicode="&#xF734;" horiz-adv-x="524" d=" M24,0 L24,64 L360,488 L428,488 L428,76 L524,76 L524,0 L428,0 L428,-200 L340,-200 L340,0 M121,76 L340,76 L340,344"/> 
            <glyph glyph-name="" unicode="&#xF735;" horiz-adv-x="488" d=" M32,-16 L120,-16 Q127,-67 162,-101.5 Q197,-136 260,-136 Q318,-136 359,-96.5 Q400,-57 400,12 Q400,83 360.5,123.5 Q321,164 264,164 Q193,164 136,96 L56,100 L76,488 L448,488 L448,408 L156,408 L144,192 L148,192 Q196,240 276,240 Q366,240 427,181.5 Q488,123 488,20 Q488,-91 421,-151.5 Q354,-212 260,-212 Q160,-212 100,-159 Q40,-106 32,-16"/> 
            <glyph glyph-name="" unicode="&#xF736;" horiz-adv-x="516" d=" M44,324 Q44,519 112.5,609.5 Q181,700 292,700 Q387,700 439,650.5 Q491,601 500,516 L412,516 Q398,624 292,624 Q223,624 181,559 Q139,494 136,349 Q156,391 200.5,415.5 Q245,440 300,440 Q397,440 456.5,378.5 Q516,317 516,216 Q516,110 449,49 Q382,-12 288,-12 Q176,-12 110,67 Q44,146 44,324 M290,364 Q226,364 187,322.5 Q148,281 148,215 Q148,150 186.5,107 Q225,64 286,64 Q349,64 388.5,104 Q428,144 428,216 Q428,281 388,322.5 Q348,364 290,364"/> 
            <glyph glyph-name="" unicode="&#xF737;" horiz-adv-x="444" d=" M60,-200 L348,408 L16,408 L16,488 L444,488 L444,424 L152,-200"/> 
            <glyph glyph-name="" unicode="&#xF738;" horiz-adv-x="516" d=" M36,184 Q36,246 72.5,293.5 Q109,341 164,356 L164,360 Q122,375 93,419 Q64,463 64,514 Q64,596 122,648 Q180,700 276,700 Q372,700 430,648 Q488,596 488,514 Q488,463 459,419 Q430,375 388,360 L388,356 Q443,341 479.5,293.5 Q516,246 516,184 Q516,93 450.5,40.5 Q385,-12 276,-12 Q167,-12 101.5,40.5 Q36,93 36,184 M124,191 Q124,131 166,97.5 Q208,64 276,64 Q344,64 386,97.5 Q428,131 428,191 Q428,248 384.5,283 Q341,318 276,318 Q211,318 167.5,283 Q124,248 124,191 M221,394 Q331,394 367.5,427 Q404,460 404,513 Q404,565 367.5,596.5 Q331,628 276,628 Q221,628 184.5,596.5 Q148,565 148,513 Q148,460 221,394"/> 
            <glyph glyph-name="" unicode="&#xF739;" horiz-adv-x="500" d=" M500,168 Q500,-212 252,-212 Q158,-212 102.5,-161.5 Q47,-111 44,-28 L132,-28 Q137,-76 167.5,-106 Q198,-136 252,-136 Q325,-136 365,-72 Q405,-8 408,138 Q388,97 343.5,72.5 Q299,48 244,48 Q147,48 87.5,109.5 Q28,171 28,272 Q28,378 95,439 Q162,500 256,500 Q500,500 500,168 M254,124 Q318,124 357,165 Q396,206 396,273 Q396,338 357.5,381 Q319,424 258,424 Q195,424 155.5,384 Q116,344 116,272 Q116,207 156,165.5 Q196,124 254,124"/> 
            <glyph glyph-name="" unicode="&#xF73F;" horiz-adv-x="428" d=" M188,152 L188,172 Q188,203 199.5,228.5 Q211,254 227.5,269 Q244,284 264,299 Q284,314 300.5,325 Q317,336 328.5,352.5 Q340,369 340,388 Q340,418 310.5,439 Q281,460 236,460 Q182,460 153,432.5 Q124,405 124,360 L40,360 Q40,434 91.5,483 Q143,532 236,532 Q322,532 375,494.5 Q428,457 428,392 Q428,357 412,330.5 Q396,304 373,287.5 Q350,271 327,256 Q304,241 288,221 Q272,201 272,176 L272,152 M180,0 L180,104 L280,104 L280,0"/> 
            <glyph glyph-name="" unicode="&#xF761;" horiz-adv-x="516" d=" M8,0 L212,520 L316,520 L516,0 L424,0 L377,126 L144,126 L96,0 M264,432 L260,432 L171,198 L350,198"/> 
            <glyph glyph-name="" unicode="&#xF762;" horiz-adv-x="528" d=" M88,0 L88,520 L328,520 Q415,520 459.5,484.5 Q504,449 504,384 Q504,347 482.5,318 Q461,289 416,278 L416,275 Q466,267 497,232.5 Q528,198 528,152 Q528,84 479,42 Q430,0 344,0 M344,230 L176,230 L176,76 L344,76 Q389,76 412.5,97.5 Q436,119 436,156 Q436,190 412,210 Q388,230 344,230 M328,444 L176,444 L176,306 L328,306 Q368,306 390,326.5 Q412,347 412,380 Q412,444 328,444"/> 
            <glyph glyph-name="" unicode="&#xF763;" horiz-adv-x="548" d=" M44,260 Q44,379 117.5,455.5 Q191,532 308,532 Q404,532 467.5,482.5 Q531,433 548,352 L460,352 Q431,452 312,452 Q232,452 184,398.5 Q136,345 136,260 Q136,179 183.5,123.5 Q231,68 312,68 Q428,68 460,168 L548,168 Q531,86 467.5,37 Q404,-12 308,-12 Q190,-12 117,66.5 Q44,145 44,260"/> 
            <glyph glyph-name="" unicode="&#xF764;" horiz-adv-x="556" d=" M88,0 L88,520 L280,520 Q409,520 482.5,448.5 Q556,377 556,260 Q556,144 483,72 Q410,0 280,0 M280,444 L176,444 L176,76 L280,76 Q374,76 419,128.5 Q464,181 464,260 Q464,339 419,391.5 Q374,444 280,444"/> 
            <glyph glyph-name="" unicode="&#xF765;" horiz-adv-x="476" d=" M88,0 L88,520 L468,520 L468,444 L176,444 L176,302 L412,302 L412,228 L176,228 L176,76 L476,76 L476,0"/> 
            <glyph glyph-name="" unicode="&#xF766;" horiz-adv-x="464" d=" M88,0 L88,520 L464,520 L464,444 L176,444 L176,276 L404,276 L404,202 L176,202 L176,0"/> 
            <glyph glyph-name="" unicode="&#xF767;" horiz-adv-x="564" d=" M324,204 L324,276 L564,276 L564,0 L508,0 L496,68 L493,68 Q436,-12 316,-12 Q199,-12 123.5,67 Q48,146 48,260 Q48,379 124.5,455.5 Q201,532 324,532 Q419,532 483.5,484.5 Q548,437 564,364 L472,364 Q460,402 421.5,427 Q383,452 324,452 Q240,452 190,398.5 Q140,345 140,260 Q140,178 189,123 Q238,68 320,68 Q390,68 437,102.5 Q484,137 484,201 L484,204"/> 
            <glyph glyph-name="" unicode="&#xF768;" horiz-adv-x="540" d=" M88,0 L88,520 L176,520 L176,300 L452,300 L452,520 L540,520 L540,0 L452,0 L452,224 L176,224 L176,0"/> 
            <glyph glyph-name="" unicode="&#xF769;" horiz-adv-x="176" d=" M88,0 L88,520 L176,520 L176,0"/> 
            <glyph glyph-name="" unicode="&#xF76A;" horiz-adv-x="372" d=" M40,152 L40,176 L124,176 L124,152 Q124,64 204,64 Q284,64 284,156 L284,520 L372,520 L372,160 Q372,73 326.5,30.5 Q281,-12 204,-12 Q128,-12 84,28 Q40,68 40,152"/> 
            <glyph glyph-name="" unicode="&#xF76B;" horiz-adv-x="548" d=" M88,0 L88,520 L176,520 L176,247 L432,520 L536,520 L317,291 L548,0 L444,0 L258,231 L176,145 L176,0"/> 
            <glyph glyph-name="" unicode="&#xF76C;" horiz-adv-x="444" d=" M88,0 L88,520 L176,520 L176,80 L444,80 L444,0"/> 
            <glyph glyph-name="" unicode="&#xF76D;" horiz-adv-x="680" d=" M88,0 L88,520 L200,520 L385,116 L387,116 L572,520 L680,520 L680,0 L592,0 L599,388 L596,388 L416,0 L352,0 L172,388 L168,388 L176,0"/> 
            <glyph glyph-name="" unicode="&#xF76E;" horiz-adv-x="540" d=" M88,0 L88,520 L168,520 L452,144 L455,144 L452,520 L540,520 L540,0 L460,0 L176,376 L172,376 L176,0"/> 
            <glyph glyph-name="" unicode="&#xF76F;" horiz-adv-x="588" d=" M44,143 Q44,377 121.5,454.5 Q199,532 316,532 Q433,532 510.5,454.5 Q588,377 588,260 Q588,143 510.5,65.5 Q433,-12 316,-12 Q199,-12 44,143 M136,344 Q136,176 185.5,122 Q235,68 316,68 Q397,68 446.5,122 Q496,176 496,260 Q496,344 446.5,398 Q397,452 316,452 Q235,452 136,344"/> 
            <glyph glyph-name="" unicode="&#xF770;" horiz-adv-x="504" d=" M88,0 L88,520 L316,520 Q406,520 455,472.5 Q504,425 504,348 Q504,271 455,223.5 Q406,176 316,176 L176,176 L176,0 M316,444 L176,444 L176,252 L316,252 Q365,252 390.5,278 Q416,304 416,348 Q416,392 390.5,418 Q365,444 316,444"/> 
            <glyph glyph-name="" unicode="&#xF771;" horiz-adv-x="610" d=" M44,143 Q44,377 121.5,454.5 Q199,532 316,532 Q433,532 510.5,454.5 Q588,377 588,260 Q588,138 506,61 L610,-45 L550,-100 L439,15 Q380,-12 316,-12 Q199,-12 44,143 M136,344 Q136,176 185.5,122 Q235,68 316,68 Q397,68 446.5,122 Q496,176 496,260 Q496,344 446.5,398 Q397,452 316,452 Q235,452 136,344"/> 
            <glyph glyph-name="" unicode="&#xF772;" horiz-adv-x="528" d=" M88,0 L88,520 L320,520 Q409,520 456.5,477.5 Q504,435 504,360 Q504,300 473.5,259 Q443,218 386,203 L528,0 L428,0 L296,196 L176,196 L176,0 M320,444 L176,444 L176,272 L320,272 Q368,272 392,295.5 Q416,319 416,360 Q416,399 391,421.5 Q366,444 320,444"/> 
            <glyph glyph-name="" unicode="&#xF773;" horiz-adv-x="480" d=" M44,148 L132,148 Q132,106 166,83 Q200,60 260,60 Q388,60 388,144 Q388,178 353.5,195 Q319,212 270,219 Q221,226 172,237 Q123,248 88.5,281 Q54,314 54,372 Q54,444 111.5,488 Q169,532 264,532 Q357,532 410.5,490 Q464,448 464,376 L380,376 Q380,415 348,437.5 Q316,460 264,460 Q144,460 144,380 Q144,350 169,332 Q194,314 231,308.5 Q268,303 312,294 Q356,285 393,273.5 Q430,262 455,231 Q480,200 480,152 Q480,76 422,32 Q364,-12 260,-12 Q159,-12 101.5,31 Q44,74 44,148"/> 
            <glyph glyph-name="" unicode="&#xF774;" horiz-adv-x="492" d=" M20,444 L20,520 L492,520 L492,444 L300,444 L300,0 L212,0 L212,444"/> 
            <glyph glyph-name="" unicode="&#xF775;" horiz-adv-x="524" d=" M72,208 L72,520 L160,520 L160,208 Q160,141 194,104.5 Q228,68 296,68 Q365,68 400.5,104.5 Q436,141 436,208 L436,520 L524,520 L524,208 Q524,94 462.5,41 Q401,-12 296,-12 Q193,-12 132.5,41 Q72,94 72,208"/> 
            <glyph glyph-name="" unicode="&#xF776;" horiz-adv-x="508" d=" M200,0 L8,520 L100,520 L258,88 L262,88 L420,520 L508,520 L312,0"/> 
            <glyph glyph-name="" unicode="&#xF777;" horiz-adv-x="756" d=" M156,0 L16,520 L108,520 L214,96 L218,96 L344,520 L436,520 L561,96 L565,96 L668,520 L756,520 L620,0 L508,0 L389,408 L387,408 L268,0"/> 
            <glyph glyph-name="" unicode="&#xF778;" horiz-adv-x="488" d=" M8,0 L199,267 L16,520 L120,520 L251,333 L380,520 L480,520 L297,269 L488,0 L392,0 L245,205 L100,0"/> 
            <glyph glyph-name="" unicode="&#xF779;" horiz-adv-x="500" d=" M206,0 L206,202 L4,520 L108,520 L253,286 L255,286 L404,520 L500,520 L294,205 L294,0"/> 
            <glyph glyph-name="" unicode="&#xF77A;" horiz-adv-x="460" d=" M52,444 L52,520 L460,520 L460,464 L157,76 L456,76 L456,0 L40,0 L40,56 L342,444"/> 
            <glyph glyph-name="" unicode="&#xF7A1;" horiz-adv-x="192" d=" M88,416 L88,520 L192,520 L192,416 M88,0 L88,144 L116,368 L164,368 L192,144 L192,0"/> 
            <glyph glyph-name="" unicode="&#xF7BF;" horiz-adv-x="428" d=" M280,368 L280,348 Q280,317 268.5,291.5 Q257,266 240.5,251 Q224,236 204,221 Q184,206 167.5,195 Q151,184 139.5,167.5 Q128,151 128,132 Q128,102 157.5,81 Q187,60 232,60 Q286,60 315,87.5 Q344,115 344,160 L428,160 Q428,86 376.5,37 Q325,-12 232,-12 Q146,-12 93,25.5 Q40,63 40,128 Q40,163 56,189.5 Q72,216 95,232.5 Q118,249 141,264 Q164,279 180,299 Q196,319 196,344 L196,368 M288,520 L288,416 L188,416 L188,520"/> 
            <glyph glyph-name="" unicode="&#xF7E0;" horiz-adv-x="516" d=" M8,0 L212,520 L316,520 L516,0 L424,0 L377,126 L144,126 L96,0 M264,432 L260,432 L171,198 L350,198 M230,600 L86,764 L190,764 L294,600"/> 
            <glyph glyph-name="" unicode="&#xF7E1;" horiz-adv-x="516" d=" M8,0 L212,520 L316,520 L516,0 L424,0 L377,126 L144,126 L96,0 M264,432 L260,432 L171,198 L350,198 M230,600 L334,764 L438,764 L294,600"/> 
            <glyph glyph-name="" unicode="&#xF7E2;" horiz-adv-x="516" d=" M8,0 L212,520 L316,520 L516,0 L424,0 L377,126 L144,126 L96,0 M264,432 L260,432 L171,198 L350,198 M94,600 L222,764 L302,764 L430,600 L346,600 L262,712 L178,600"/> 
            <glyph glyph-name="" unicode="&#xF7E3;" horiz-adv-x="516" d=" M8,0 L212,520 L316,520 L516,0 L424,0 L377,126 L144,126 L96,0 M264,432 L260,432 L171,198 L350,198 M98,628 Q100,675 125,705.5 Q150,736 194,736 Q226,736 273,712 Q320,688 334,688 Q370,688 378,736 L426,736 Q424,689 399,658.5 Q374,628 330,628 Q298,628 251,652 Q204,676 190,676 Q154,676 146,628"/> 
            <glyph glyph-name="" unicode="&#xF7E4;" horiz-adv-x="516" d=" M8,0 L212,520 L316,520 L516,0 L424,0 L377,126 L144,126 L96,0 M264,432 L260,432 L171,198 L350,198 M318,636 L318,728 L406,728 L406,636 M118,636 L118,728 L206,728 L206,636"/> 
            <glyph glyph-name="" unicode="&#xF7E5;" horiz-adv-x="516" d=" M8,0 L212,520 L316,520 L516,0 L424,0 L377,126 L144,126 L96,0 M264,432 L260,432 L171,198 L350,198 M303,596 Q221,596 191.5,623 Q162,650 162,692 Q162,734 191.5,761 Q221,788 262,788 Q303,788 332.5,761 Q362,734 362,692 Q362,650 303,596 M240,640 Q284,640 299,655 Q314,670 314,692 Q314,714 299,729 Q284,744 262,744 Q240,744 225,729 Q210,714 210,692 Q210,670 240,640"/> 
            <glyph glyph-name="" unicode="&#xF7E6;" horiz-adv-x="820" d=" M0,0 L404,520 L812,520 L812,444 L520,444 L520,302 L756,302 L756,228 L520,228 L520,76 L820,76 L820,0 L432,0 L432,128 L197,128 L100,0 M428,432 L251,200 L432,200 L432,432"/> 
            <glyph glyph-name="" unicode="&#xF7E7;" horiz-adv-x="548" d=" M264,-84 L288,-11 Q178,-4 111,73 Q44,150 44,260 Q44,379 117.5,455.5 Q191,532 308,532 Q404,532 467.5,482.5 Q531,433 548,352 L460,352 Q431,452 312,452 Q232,452 184,398.5 Q136,345 136,260 Q136,179 183.5,123.5 Q231,68 312,68 Q428,68 460,168 L548,168 Q532,89 472.5,41 Q413,-7 324,-11 L324,-36 Q368,-39 392,-63.5 Q416,-88 416,-124 Q416,-167 386,-193.5 Q356,-220 300,-220 L244,-220 L244,-164 L296,-164 Q348,-164 348,-124 Q348,-84 296,-84"/> 
            <glyph glyph-name="" unicode="&#xF7E8;" horiz-adv-x="476" d=" M88,0 L88,520 L468,520 L468,444 L176,444 L176,302 L412,302 L412,228 L176,228 L176,76 L476,76 L476,0 M244,600 L100,764 L204,764 L308,600"/> 
            <glyph glyph-name="" unicode="&#xF7E9;" horiz-adv-x="476" d=" M88,0 L88,520 L468,520 L468,444 L176,444 L176,302 L412,302 L412,228 L176,228 L176,76 L476,76 L476,0 M244,600 L348,764 L452,764 L308,600"/> 
            <glyph glyph-name="" unicode="&#xF7EA;" horiz-adv-x="476" d=" M88,0 L88,520 L468,520 L468,444 L176,444 L176,302 L412,302 L412,228 L176,228 L176,76 L476,76 L476,0 M108,600 L236,764 L316,764 L444,600 L360,600 L276,712 L192,600"/> 
            <glyph glyph-name="" unicode="&#xF7EB;" horiz-adv-x="476" d=" M88,0 L88,520 L468,520 L468,444 L176,444 L176,302 L412,302 L412,228 L176,228 L176,76 L476,76 L476,0 M332,636 L332,728 L420,728 L420,636 M132,636 L132,728 L220,728 L220,636"/> 
            <glyph glyph-name="" unicode="&#xF7EC;" horiz-adv-x="176" d=" M88,0 L88,520 L176,520 L176,0 M98,600 L-46,764 L58,764 L162,600"/> 
            <glyph glyph-name="" unicode="&#xF7ED;" horiz-adv-x="306" d=" M88,0 L88,520 L176,520 L176,0 M98,600 L202,764 L306,764 L162,600"/> 
            <glyph glyph-name="" unicode="&#xF7EE;" horiz-adv-x="298" d=" M88,0 L88,520 L176,520 L176,0 M-38,600 L90,764 L170,764 L298,600 L214,600 L130,712 L46,600"/> 
            <glyph glyph-name="" unicode="&#xF7EF;" horiz-adv-x="274" d=" M88,0 L88,520 L176,520 L176,0 M186,636 L186,728 L274,728 L274,636 M-14,636 L-14,728 L74,728 L74,636"/> 
            <glyph glyph-name="" unicode="&#xF7F0;" horiz-adv-x="556" d=" M4,228 L4,292 L88,292 L88,520 L280,520 Q409,520 482.5,448.5 Q556,377 556,260 Q556,144 483,72 Q410,0 280,0 L88,0 L88,228 M280,444 L176,444 L176,292 L284,292 L284,228 L176,228 L176,76 L280,76 Q374,76 419,128.5 Q464,181 464,260 Q464,339 419,391.5 Q374,444 280,444"/> 
            <glyph glyph-name="" unicode="&#xF7F1;" horiz-adv-x="540" d=" M88,0 L88,520 L168,520 L452,144 L455,144 L452,520 L540,520 L540,0 L460,0 L176,376 L172,376 L176,0 M150,628 Q152,675 177,705.5 Q202,736 246,736 Q278,736 325,712 Q372,688 386,688 Q422,688 430,736 L478,736 Q476,689 451,658.5 Q426,628 382,628 Q350,628 303,652 Q256,676 242,676 Q206,676 198,628"/> 
            <glyph glyph-name="" unicode="&#xF7F2;" horiz-adv-x="588" d=" M44,143 Q44,377 121.5,454.5 Q199,532 316,532 Q433,532 510.5,454.5 Q588,377 588,260 Q588,143 510.5,65.5 Q433,-12 316,-12 Q199,-12 44,143 M136,344 Q136,176 185.5,122 Q235,68 316,68 Q397,68 446.5,122 Q496,176 496,260 Q496,344 446.5,398 Q397,452 316,452 Q235,452 136,344 M284,600 L140,764 L244,764 L348,600"/> 
            <glyph glyph-name="" unicode="&#xF7F3;" horiz-adv-x="588" d=" M44,143 Q44,377 121.5,454.5 Q199,532 316,532 Q433,532 510.5,454.5 Q588,377 588,260 Q588,143 510.5,65.5 Q433,-12 316,-12 Q199,-12 44,143 M136,344 Q136,176 185.5,122 Q235,68 316,68 Q397,68 446.5,122 Q496,176 496,260 Q496,344 446.5,398 Q397,452 316,452 Q235,452 136,344 M284,600 L388,764 L492,764 L348,600"/> 
            <glyph glyph-name="" unicode="&#xF7F4;" horiz-adv-x="588" d=" M44,143 Q44,377 121.5,454.5 Q199,532 316,532 Q433,532 510.5,454.5 Q588,377 588,260 Q588,143 510.5,65.5 Q433,-12 316,-12 Q199,-12 44,143 M136,344 Q136,176 185.5,122 Q235,68 316,68 Q397,68 446.5,122 Q496,176 496,260 Q496,344 446.5,398 Q397,452 316,452 Q235,452 136,344 M148,600 L276,764 L356,764 L484,600 L400,600 L316,712 L232,600"/> 
            <glyph glyph-name="" unicode="&#xF7F5;" horiz-adv-x="588" d=" M44,143 Q44,377 121.5,454.5 Q199,532 316,532 Q433,532 510.5,454.5 Q588,377 588,260 Q588,143 510.5,65.5 Q433,-12 316,-12 Q199,-12 44,143 M136,344 Q136,176 185.5,122 Q235,68 316,68 Q397,68 446.5,122 Q496,176 496,260 Q496,344 446.5,398 Q397,452 316,452 Q235,452 136,344 M152,628 Q154,675 179,705.5 Q204,736 248,736 Q280,736 327,712 Q374,688 388,688 Q424,688 432,736 L480,736 Q478,689 453,658.5 Q428,628 384,628 Q352,628 305,652 Q258,676 244,676 Q208,676 200,628"/> 
            <glyph glyph-name="" unicode="&#xF7F6;" horiz-adv-x="588" d=" M44,143 Q44,377 121.5,454.5 Q199,532 316,532 Q433,532 510.5,454.5 Q588,377 588,260 Q588,143 510.5,65.5 Q433,-12 316,-12 Q199,-12 44,143 M136,344 Q136,176 185.5,122 Q235,68 316,68 Q397,68 446.5,122 Q496,176 496,260 Q496,344 446.5,398 Q397,452 316,452 Q235,452 136,344 M372,636 L372,728 L460,728 L460,636 M172,636 L172,728 L260,728 L260,636"/> 
            <glyph glyph-name="" unicode="&#xF7F8;" horiz-adv-x="588" d=" M60,-12 L122,64 Q44,142 44,260 Q44,377 121.5,454.5 Q199,532 316,532 Q400,532 468,488 L504,532 L576,532 L511,453 Q588,376 588,260 Q588,143 510.5,65.5 Q433,-12 316,-12 Q231,-12 166,30 L132,-12 M136,260 Q136,183 177,131 L416,424 Q372,452 316,452 Q235,452 185.5,398 Q136,344 136,260 M496,260 Q496,335 456,386 L218,94 Q259,68 316,68 Q397,68 446.5,122 Q496,176 496,260"/> 
            <glyph glyph-name="" unicode="&#xF7F9;" horiz-adv-x="524" d=" M72,208 L72,520 L160,520 L160,208 Q160,141 194,104.5 Q228,68 296,68 Q365,68 400.5,104.5 Q436,141 436,208 L436,520 L524,520 L524,208 Q524,94 462.5,41 Q401,-12 296,-12 Q193,-12 132.5,41 Q72,94 72,208 M266,600 L122,764 L226,764 L330,600"/> 
            <glyph glyph-name="" unicode="&#xF7FA;" horiz-adv-x="524" d=" M72,208 L72,520 L160,520 L160,208 Q160,141 194,104.5 Q228,68 296,68 Q365,68 400.5,104.5 Q436,141 436,208 L436,520 L524,520 L524,208 Q524,94 462.5,41 Q401,-12 296,-12 Q193,-12 132.5,41 Q72,94 72,208 M266,600 L370,764 L474,764 L330,600"/> 
            <glyph glyph-name="" unicode="&#xF7FB;" horiz-adv-x="524" d=" M72,208 L72,520 L160,520 L160,208 Q160,141 194,104.5 Q228,68 296,68 Q365,68 400.5,104.5 Q436,141 436,208 L436,520 L524,520 L524,208 Q524,94 462.5,41 Q401,-12 296,-12 Q193,-12 132.5,41 Q72,94 72,208 M130,600 L258,764 L338,764 L466,600 L382,600 L298,712 L214,600"/> 
            <glyph glyph-name="" unicode="&#xF7FC;" horiz-adv-x="524" d=" M72,208 L72,520 L160,520 L160,208 Q160,141 194,104.5 Q228,68 296,68 Q365,68 400.5,104.5 Q436,141 436,208 L436,520 L524,520 L524,208 Q524,94 462.5,41 Q401,-12 296,-12 Q193,-12 132.5,41 Q72,94 72,208 M354,636 L354,728 L442,728 L442,636 M154,636 L154,728 L242,728 L242,636"/> 
            <glyph glyph-name="" unicode="&#xF7FD;" horiz-adv-x="500" d=" M206,0 L206,202 L4,520 L108,520 L253,286 L255,286 L404,520 L500,520 L294,205 L294,0 M220,600 L324,764 L428,764 L284,600"/> 
            <glyph glyph-name="" unicode="&#xF7FE;" horiz-adv-x="504" d=" M88,0 L88,520 L176,520 L176,440 L316,440 Q406,440 455,392.5 Q504,345 504,268 Q504,191 455,143.5 Q406,96 316,96 L176,96 L176,0 M316,364 L176,364 L176,172 L316,172 Q365,172 390.5,198 Q416,224 416,268 Q416,312 390.5,338 Q365,364 316,364"/> 
            <glyph glyph-name="" unicode="&#xF7FF;" horiz-adv-x="500" d=" M206,0 L206,202 L4,520 L108,520 L253,286 L255,286 L404,520 L500,520 L294,205 L294,0 M308,636 L308,728 L396,728 L396,636 M108,636 L108,728 L196,728 L196,636"/> 
            <glyph glyph-name=" " unicode="&#x20;" horiz-adv-x="192" d=" M116,192 L88,496 L88,688 L192,688 L192,496 L164,192 M88,0 L88,108 L192,108 L192,0"/> 
            <glyph glyph-name="!" unicode="&#x21;" horiz-adv-x="328" d=" M80,436 L64,604 L64,688 L152,688 L152,604 L136,436 M256,436 L240,604 L240,688 L328,688 L328,604 L312,436"/> 
            <glyph glyph-name="&quot;" unicode="&#x22;" horiz-adv-x="596" d=" M60,456 L60,524 L187,524 L216,688 L296,688 L267,524 L411,524 L440,688 L520,688 L491,524 L596,524 L596,456 L479,456 L441,236 L556,236 L556,168 L429,168 L400,0 L320,0 L349,168 L205,168 L176,0 L96,0 L125,168 L20,168 L20,236 L137,236 L175,456 M255,456 L217,236 L361,236 L399,456"/> 
            <glyph glyph-name="#" unicode="&#x23;" horiz-adv-x="516" d=" M44,192 L132,192 Q136,131 176.5,95.5 Q217,60 280,60 Q346,60 385,93 Q424,126 424,184 Q424,231 394,255.5 Q364,280 300,300 L212,328 Q60,377 60,512 Q60,585 108.5,635 Q157,685 236,696 L236,804 L324,804 L324,696 Q398,684 446.5,636.5 Q495,589 500,516 L412,516 Q404,572 368.5,600 Q333,628 280,628 Q225,628 188.5,600 Q152,572 152,520 Q152,473 178.5,448.5 Q205,424 268,404 L356,376 Q437,350 476.5,304.5 Q516,259 516,188 Q516,106 463.5,54 Q411,2 324,-9 L324,-120 L236,-120 L236,-9 Q150,2 98.5,55 Q47,108 44,192"/> 
            </font>
</defs>
</svg>
