<svg xmlns="http://www.w3.org/2000/svg" viewBox="0 0 512 512"><defs><style>.a{fill:#e31d13;fill-rule:evenodd;}</style></defs><title>Tekengebied 2</title><path class="a" d="M274.67,32.16c28.5-.17,16.86,16,20.82,37.48,4.48,24.34-1.56,51.45-1.56,76,0,10.46-2.63,25.16,1.56,32.27l4.16,1c1.46-.84,2.22-1.11,3.12-2.6,3.8-3.95.3-16.2,1.56-23.95,4.23-25.88-4-61,4.69-83.29,2.39-6.13,14.31-14.66,20.82-8.33,2.71,1,9.54,9.39,10.41,12l2.08,71.84,1.56,17.7c-2.65,11,1.93,30.62,2.08,42.69a403.76,403.76,0,0,0,2.6,41.64c5.13,42,4.75,82.56,12.49,123.37l1,20.82c4.43,20.45,9.67,44.78,16.14,65.07l9.37,23.95c-29.81-7.93-63.44-7.55-97.87-14.06-12.57-2.38-24.1.64-35.92-1-16.33-2.32-47.19-4.55-65.59-1.56l-40.08,2.6c-4.38.89-12.88,2.69-16.66,2.6l-.52-1c9.05-14.73,7.1-50.24,12.49-69.75,9.68-35,5.73-74.51,13.53-110.36,2.91-13.38.41-27.34,2.6-38.52,3.87-19.76-1.47-42.27,1.56-60.91,4.66-28.62-.54-59.51,6.25-84.85,3.37-12.58.74-21.28,15.62-21.86,4.5,2.22,9.65,4,11.45,8.85l4.16,77c0,10.49-1,24.36,3.12,31.23h.52l5.21-1c2.62-8.85,0-20,0-29.67,0-31.46-3.18-71.15,2.6-96.82,3.21-14.24,2.61-26.51,17.18-28.63,3-.44,6.61,1.65,8.33,2.6,12.77,7.08,5.43,12.27,8.33,26.55,4.41,21.72,2.6,49.32,2.6,73.92,0,10.76-2,27.27,2.6,33.84l1.56.52,4.16-3.12c-.21-24.77-1.12-50.36,2.6-73.4,1.67-10.35,0-20.59,1.56-29.15,2-11.24-1.65-22.69,2.6-31.23C264.49,36.89,270.24,36.14,274.67,32.16Z"/></svg>